<svg width="400" height="72" viewBox="0 0 400 72" fill="none" xmlns="http://www.w3.org/2000/svg">
<path d="M51.062 0.132812H41.6135L38.8577 8.51737H49.4872L60.5104 42.4486L35.9707 60.3968V70.7465L66.8094 48.344C69.0403 46.7719 69.9589 43.8897 69.1715 41.2696L57.0985 4.4561C56.3111 1.83593 53.8178 0.132812 51.062 0.132812Z" fill="#05735B"/>
<path d="M26.1296 38.7786L38.7276 0H18.2559C15.5001 0 13.0068 1.83412 12.2194 4.32329L0.277594 41.2677C-0.509777 43.8879 0.408823 46.7701 2.63971 48.3422L33.4784 70.7447V60.395L21.9303 52.0105L26.1296 38.7786ZM8.67622 42.4468L19.6994 8.51557H27.1795L14.7127 46.9011L8.67622 42.4468Z" fill="#05735B"/>
<path d="M91.0873 45.5908C91.0873 48.0799 91.481 49.783 92.3996 50.5691C93.3182 51.4862 95.0242 51.8792 97.78 52.0102V52.5342C85.8382 52.4032 79.2768 52.4032 78.0957 52.5342V52.0102C80.3266 51.8792 81.7701 51.4862 82.4262 50.5691C83.0824 49.652 83.4761 48.0799 83.4761 45.5908V11.7905C83.4761 9.43236 83.2136 7.99127 82.5575 7.33622C81.9013 6.68118 80.4578 6.28816 78.2269 6.15715V5.37109C90.1687 5.37109 96.7302 5.5021 97.78 5.5021C102.898 5.5021 106.835 6.68118 109.591 9.03934C112.346 11.3975 113.659 14.5417 113.659 18.472C113.659 20.1751 113.396 21.8782 112.871 23.4503C112.346 25.0224 111.428 26.5945 110.115 28.1666C108.934 29.7387 107.097 30.9178 104.604 31.8349C102.242 32.7519 99.3547 33.2759 96.2053 33.2759H91.0873V45.5908ZM91.0873 11.7905V32.7519H95.5491C97.2551 32.7519 98.8298 32.4899 100.011 31.9659C101.192 31.4418 102.111 30.9178 102.767 30.2627C103.423 29.6077 103.817 28.5596 104.079 27.2495C104.341 25.9395 104.604 24.7604 104.604 23.9743C104.604 23.1883 104.735 21.8782 104.735 20.1751C104.735 19.7821 104.735 19.52 104.735 19.389C104.735 17.4239 104.735 15.9828 104.604 14.8037C104.473 13.6246 104.341 12.4456 104.079 11.2665C103.817 10.0874 103.292 9.03934 102.767 8.5153C101.979 7.72925 101.061 7.20522 100.011 6.81219C98.961 6.41916 97.6488 6.15715 96.074 6.15715C94.1056 6.15715 92.7933 6.55017 92.1372 7.20522C91.481 7.99127 91.0873 9.43236 91.0873 11.7905Z" fill="white"/>
<path d="M146.86 33.1471H126.257C125.338 44.9379 128.225 51.2263 134.655 51.7504C136.624 51.8814 138.592 51.3573 140.692 50.0472C142.792 48.7372 144.366 46.641 145.285 43.7588C145.416 43.7588 145.547 43.7588 145.679 43.8898C145.81 44.0208 145.941 44.0208 146.072 44.0208C145.154 46.641 143.71 48.7372 141.611 50.4403C139.511 52.0124 137.149 52.9294 134.393 52.9294C128.881 52.9294 124.551 51.3573 121.401 48.2131C118.383 44.9379 116.808 40.7456 116.808 35.3743C116.677 30.527 118.252 26.2037 121.27 22.5354C124.288 18.8672 128.619 17.1641 133.999 17.1641C135.705 17.1641 137.28 17.4261 138.724 18.0811C140.167 18.6052 141.611 19.5222 142.923 20.7013C144.235 21.8804 145.154 23.5835 145.941 25.6796C146.728 27.7758 146.991 30.2649 146.86 33.1471ZM140.43 32.4921C141.217 28.5618 140.954 25.1556 139.511 22.4044C138.199 19.6532 136.361 18.2121 134.131 18.0811C133.212 17.9501 132.293 18.2121 131.506 18.8672C130.719 19.5222 129.8 20.5703 128.881 22.2734C127.569 24.5006 126.782 27.9068 126.257 32.4921H140.43Z" fill="white"/>
<path d="M182.16 47.294C182.16 49.1281 182.554 50.3072 183.21 50.9622C183.997 51.6173 185.31 52.0103 187.147 52.0103V52.6653H169.431V52.0103C171.137 52.0103 172.318 51.7483 173.105 51.2242C173.893 50.7002 174.287 49.7831 174.418 48.342V37.2063C174.418 36.1582 174.418 34.9791 174.418 33.407C174.418 31.8349 174.418 30.9179 174.418 30.1318C174.418 29.4768 174.418 28.6907 174.418 27.6427C174.418 26.7256 174.418 25.9395 174.287 25.5465C174.155 25.0225 174.155 24.4984 174.024 23.9744C173.893 23.3194 173.762 22.9263 173.63 22.4023C173.499 22.0093 173.237 21.6163 173.105 21.2232C172.449 19.9131 171.268 19.2581 169.825 18.9961C168.381 18.7341 166.806 19.1271 165.232 20.0442C163.395 21.0922 161.951 22.7953 161.032 24.8915C160.114 27.1186 159.589 29.3458 159.589 31.8349V35.2412C159.589 36.9443 159.589 39.1714 159.589 41.9226C159.589 44.6738 159.589 46.5079 159.589 47.294C159.589 49.1281 159.983 50.3072 160.639 50.9622C161.426 51.6173 162.607 52.0103 164.576 52.0103V52.6653H146.729V52.0103C148.566 52.0103 149.878 51.6173 150.665 50.9622C151.453 50.3072 151.715 48.9971 151.715 47.294V35.2412L151.584 24.7605C151.584 24.1054 151.322 23.8434 150.797 23.8434H150.403V23.1884C154.996 22.7953 157.752 20.9612 159.064 17.686H159.589V25.8085C159.983 24.3674 160.77 22.9263 161.951 21.6163C163.001 20.3062 164.051 19.3891 164.969 18.8651C166.938 17.817 169.3 17.293 172.056 17.293C174.68 17.424 176.78 17.948 178.092 18.9961C178.748 19.3891 179.273 19.9131 179.798 20.5682C180.323 21.0922 180.585 21.7473 180.979 22.4023C181.242 23.0574 181.504 23.8434 181.635 24.6295C181.767 25.4155 181.898 26.3326 182.029 27.1186C182.16 28.0357 182.16 28.9527 182.16 30.0008C182.16 31.0489 182.16 32.097 182.16 33.145C182.16 34.1931 182.16 35.3722 182.16 36.4202V47.294Z" fill="white"/>
<path d="M198.696 17.8175V47.2945C198.696 48.3426 198.696 48.9976 198.827 49.5216C198.958 50.0457 198.958 50.4387 199.221 50.7007C199.352 50.9627 199.746 51.0938 200.139 50.9627C200.533 50.8317 201.058 50.5697 201.714 50.0457L201.845 50.1767L201.977 50.3077L202.108 50.4387C200.271 51.7488 198.433 52.4038 196.596 52.4038C193.84 52.4038 192.134 51.3558 191.347 49.3906C191.347 49.2596 191.216 48.9976 191.216 48.6046C191.085 48.2116 191.085 47.6875 191.085 47.0325C191.085 46.3774 191.085 45.7224 190.953 44.9363C190.953 44.2813 190.953 43.2332 190.822 42.0541C190.822 40.8751 190.822 39.696 190.822 38.6479C190.822 37.5998 190.822 36.1588 190.822 34.4556C190.822 32.6215 190.822 31.0494 190.822 29.6083C190.822 28.1672 190.822 26.3331 190.822 23.9749C190.822 21.6168 190.822 19.5206 190.822 17.6865H187.41V17.0315H190.822L190.953 13.7563C190.953 13.1012 190.691 12.8392 190.035 12.8392H189.641V12.1842C194.103 11.7911 196.99 9.95701 198.302 6.55078H198.827V17.0315H202.239V17.6865H198.696V17.8175Z" fill="white"/>
<path d="M230.845 47.2955C230.845 49.1296 231.239 50.3087 231.895 50.9637C232.551 51.6188 233.863 52.0118 235.832 52.0118V52.6668H225.99C224.153 52.6668 223.103 51.4877 223.103 48.9986C221.265 51.2257 218.903 52.4048 216.148 52.7978C214.179 53.0599 212.211 52.7978 210.505 52.0118C208.799 51.2257 207.486 50.1777 206.699 48.7366C205.912 47.2955 205.912 45.4613 206.83 43.2342C207.618 41.007 209.455 38.6489 212.342 36.2907C215.098 33.9326 218.772 31.4434 223.234 29.0853C223.234 27.7752 223.103 26.5961 223.103 25.548C223.103 20.8317 221.003 18.4736 216.935 18.4736C214.442 18.4736 212.079 19.1286 209.98 20.4387C209.849 20.5697 209.849 20.7007 210.111 20.8317C211.161 20.8317 212.079 21.2247 212.867 22.0108C213.654 22.7968 214.048 23.7139 214.048 24.893C214.048 25.941 213.785 26.8581 212.998 27.6442C212.211 28.4302 211.423 28.8232 210.374 28.9542C209.192 28.9542 208.143 28.6922 207.355 27.9062C206.437 27.1201 206.043 26.2031 206.043 25.024C206.043 22.9278 207.355 21.2247 209.849 19.7836C212.342 18.3425 215.229 17.6875 218.51 17.6875C226.777 17.6875 230.976 21.6178 230.976 29.3473L230.845 47.2955ZM214.048 46.2474C215.098 48.2125 216.541 49.3916 218.51 49.6536C220.347 49.9156 221.922 49.3916 223.103 48.0815V29.4783C218.378 32.4915 215.491 34.9806 214.31 36.9458C212.604 39.828 212.473 42.9722 214.048 46.2474Z" fill="white"/>
<path d="M264.31 44.0203C264.704 44.1513 264.966 44.2823 265.097 44.2823C264.179 46.9025 262.735 48.9986 260.767 50.7017C258.667 52.2738 256.305 53.1909 253.418 53.1909C248.562 53.1909 244.494 51.7498 241.082 48.6056C237.802 45.4614 236.096 41.0071 236.096 34.9807C236.096 32.0985 236.621 29.4783 237.802 26.9892C238.983 24.631 240.557 22.6659 242.395 21.2248C244.363 19.7837 246.332 18.6046 248.562 17.9496C250.793 17.1635 253.024 17.0325 255.386 17.2945C257.748 17.5565 259.717 18.3426 261.554 19.6527C264.047 21.3558 265.228 23.1899 265.228 25.286C265.228 26.4651 264.835 27.3822 263.916 28.1682C262.998 28.9543 262.079 29.3473 260.898 29.2163C259.848 29.2163 258.929 28.6923 258.142 28.0372C257.486 27.2512 257.092 26.3341 257.092 25.286C257.092 24.369 257.355 23.4519 258.011 22.7969C258.667 22.0108 259.323 21.6178 260.242 21.3558C260.504 21.3558 260.767 21.0938 260.767 20.8317C260.898 20.4387 260.767 20.1767 260.504 20.0457C258.536 18.8666 256.699 18.2116 254.993 18.0806C253.287 17.9496 251.712 18.4736 250.268 19.5217C248.825 20.5697 247.644 22.2728 246.725 24.893C245.807 27.5132 245.282 30.7884 245.019 34.7187C244.757 40.4831 245.413 44.8063 246.988 47.5575C248.562 50.3087 250.662 51.7498 253.287 52.0118C255.255 52.1428 257.224 51.6188 259.323 50.3087C261.423 48.9986 263.26 46.9025 264.31 44.0203Z" fill="white"/>
<path d="M296.854 21.3566C299.741 24.3698 301.185 28.8241 301.185 34.8505C301.185 40.8769 299.741 45.3312 296.854 48.3444C293.967 51.3576 290.293 52.7987 285.7 52.7987C281.107 52.7987 277.432 51.3576 274.545 48.3444C271.658 45.3312 270.215 40.8769 270.215 34.8505C270.215 28.8241 271.658 24.3698 274.545 21.3566C277.432 18.3434 281.107 16.9023 285.7 16.9023C290.293 16.9023 293.967 18.3434 296.854 21.3566ZM280.713 21.6187C279.795 24.2388 279.27 28.6931 279.27 34.8505C279.27 41.0079 279.795 45.4622 280.713 48.0824C281.632 50.8336 283.338 52.1437 285.7 52.1437C288.062 52.1437 289.768 50.8336 290.687 48.0824C291.605 45.3312 292.13 41.0079 292.13 34.7195C292.13 28.5621 291.605 24.2388 290.687 21.4876C289.768 18.8675 288.062 17.4264 285.7 17.4264C283.338 17.6884 281.632 18.9985 280.713 21.6187Z" fill="white"/>
<path d="M339.371 51.8795V52.5345H331.235C330.579 52.5345 330.054 52.4035 329.529 52.1415C329.135 51.8795 328.873 51.4864 328.742 51.0934C328.61 50.7004 328.479 50.1763 328.348 49.6523C328.217 49.1283 328.217 48.6042 328.217 48.0802C328.217 47.5562 328.217 47.0321 328.217 46.6391C326.511 50.7004 323.492 52.6655 318.899 52.6655C314.569 52.6655 311.288 51.0934 308.926 48.0802C306.564 45.067 305.383 40.6127 305.383 34.7173C305.383 28.9529 306.826 24.4986 309.713 21.3544C312.6 18.2102 316.144 16.6381 320.343 16.6381C324.017 16.6381 326.773 17.9482 328.348 20.5684C328.348 13.8869 328.479 9.30162 328.479 6.94346C328.479 6.28842 328.217 6.0264 327.56 6.0264H327.167V5.37136C331.629 4.97833 334.516 3.27522 335.697 0H336.222V28.8219V49.7833C336.353 50.5694 336.615 51.0934 337.009 51.4864C337.271 51.7484 338.059 51.8795 339.371 51.8795ZM328.348 44.0189V22.5335C327.167 19.2583 324.673 17.6862 320.999 17.6862C318.506 17.6862 316.8 18.7342 316.144 20.9614C315.356 23.1885 314.963 27.1188 315.094 33.0142C315.094 34.3243 315.094 35.6344 315.094 36.8134C315.094 37.9925 315.094 39.1716 315.225 40.2197C315.225 41.2677 315.356 42.3158 315.487 43.3639C315.619 44.2809 315.75 45.198 315.881 45.9841C316.012 46.7701 316.275 47.5562 316.537 48.0802C316.8 48.7352 317.193 49.2593 317.587 49.6523C317.981 50.0453 318.506 50.4384 319.031 50.5694C319.556 50.8314 320.212 50.9624 320.999 50.9624C322.836 50.9624 324.411 50.4384 325.723 49.2593C326.904 48.2112 327.823 46.3771 328.348 44.0189Z" fill="white"/>
<path d="M372.311 33.1471H351.708C350.789 44.9379 353.676 51.2263 360.107 51.7504C362.075 51.8814 364.044 51.3573 366.143 50.0472C368.243 48.7372 369.818 46.641 370.736 43.7588C370.867 43.7588 370.999 43.7588 371.13 43.8898C371.261 44.0208 371.392 44.0208 371.524 44.0208C370.605 46.641 369.161 48.7372 367.062 50.4403C364.962 52.0124 362.6 52.9294 359.844 52.9294C354.333 52.9294 350.002 51.3573 346.853 48.2131C343.834 44.9379 342.26 40.7456 342.26 35.3743C342.128 30.527 343.703 26.2037 346.721 22.5354C349.74 18.8672 354.07 17.1641 359.45 17.1641C361.156 17.1641 362.731 17.4261 364.175 18.0811C365.618 18.6052 367.062 19.5222 368.374 20.7013C369.686 21.8804 370.605 23.5835 371.392 25.6796C372.18 27.7758 372.442 30.2649 372.311 33.1471ZM365.881 32.4921C366.668 28.5618 366.406 25.1556 364.962 22.4044C363.65 19.6532 361.813 18.2121 359.582 18.0811C358.663 17.9501 357.745 18.2121 356.957 18.8672C356.17 19.5222 355.251 20.5703 354.333 22.2734C353.02 24.5006 352.233 27.9068 351.708 32.4921H365.881Z" fill="white"/>
<path d="M393.701 19.3878C394.226 19.7808 394.751 20.0429 395.145 20.3049C395.538 20.5669 395.801 20.5669 396.063 20.4359C396.326 20.3049 396.457 20.1739 396.719 20.1739C396.851 20.0429 396.982 19.7808 397.113 19.3878C397.244 18.8638 397.244 18.6018 397.244 18.3397C397.244 18.0777 397.375 17.6847 397.375 17.1607H397.9C397.769 19.5188 397.638 23.3181 397.638 28.4274H397.113C396.719 25.5452 395.538 23.1871 393.832 20.9599C392.126 18.8638 389.895 17.8157 387.008 17.8157C385.434 17.8157 384.253 18.3397 383.465 19.3878C382.678 20.4359 382.284 21.746 382.284 23.4491C382.284 24.1041 382.415 24.6282 382.678 25.2832C382.94 25.9383 383.203 26.3313 383.465 26.8553C383.728 27.2483 384.253 27.7724 384.909 28.2964C385.565 28.8204 386.09 29.2135 386.615 29.4755C387.008 29.7375 387.665 30.2615 388.714 30.9166C389.764 31.5716 390.42 31.9647 390.814 32.3577C393.832 34.3228 396.194 36.1569 397.638 37.729C399.081 39.3011 399.869 41.3973 399.869 43.8864C399.869 46.7686 398.688 48.9958 396.326 50.6989C393.964 52.271 391.077 53.1881 387.927 53.1881C385.959 53.1881 384.253 52.926 382.678 52.271C382.022 52.009 381.497 51.616 380.972 51.3539C380.447 50.9609 380.185 50.6989 379.922 50.5679C379.66 50.4369 379.528 50.3059 379.266 50.3059C378.741 50.3059 378.216 50.5679 377.822 51.0919C377.298 51.616 377.035 52.14 377.035 52.795H376.51C376.641 50.3059 376.773 45.8516 376.773 39.5632H377.298C377.429 43.4934 378.347 46.6376 380.053 48.9958C381.759 51.3539 384.253 52.402 387.533 52.402C388.977 52.402 390.289 51.747 391.47 50.5679C392.651 49.3888 393.176 47.6857 393.176 45.4586C393.176 44.5415 393.045 43.7554 392.651 42.9694C392.258 42.1833 391.733 41.3973 390.814 40.6112C389.895 39.8252 389.108 39.1701 388.583 38.7771C387.927 38.3841 386.877 37.729 385.434 36.681C383.728 35.6329 382.547 34.8468 381.891 34.3228C381.234 33.7988 380.316 33.1437 379.266 32.0957C378.216 31.0476 377.429 30.1305 377.035 29.0825C376.641 28.0344 376.379 26.8553 376.379 25.5452C376.379 22.794 377.429 20.6979 379.528 19.2568C381.628 17.8157 384.121 17.0297 386.877 17.0297C389.371 16.8987 391.733 17.6847 393.701 19.3878Z" fill="white"/>
<path d="M91.4814 61.4414L88.3319 70.743H87.6758L84.7887 62.3585L81.9017 70.743H81.2456L77.9648 61.4414H78.621L81.508 69.826L84.395 61.4414H85.0512L87.9382 69.826L90.8252 61.4414H91.4814Z" fill="white"/>
<path d="M105.26 70.088V70.743H98.8301V61.4414H105.129V62.0964H99.6174V65.7647H104.604V66.4197H99.6174V70.219H105.26V70.088Z" fill="white"/>
<path d="M123.633 61.9654H120.221V61.4414H127.57V62.0964H124.158V70.874H123.501V61.9654H123.633Z" fill="white"/>
<path d="M140.036 68.1228H134.656L133.475 70.743H132.688L137.018 61.4414H137.674L142.005 70.743H141.217L140.036 68.1228ZM139.774 67.4678L137.281 62.0964L134.787 67.4678H139.774Z" fill="white"/>
<path d="M151.715 66.1577L149.615 68.2539V70.743H148.959V61.4414H149.615V67.4678L155.389 61.4414H156.177L152.108 65.6337L156.439 70.743H155.652L151.715 66.1577Z" fill="white"/>
<path d="M170.219 70.088V70.743H163.789V61.4414H170.088V62.0964H164.576V65.7647H169.563V66.4197H164.576V70.219H170.219V70.088Z" fill="white"/>
<path d="M189.641 67.468V70.7432H188.985V67.468L185.18 61.3105H185.967L189.379 66.8129L192.791 61.3105H193.447L189.641 67.468Z" fill="white"/>
<path d="M201.583 70.0881C200.795 69.6951 200.271 69.1711 199.877 68.385C199.483 67.73 199.221 66.8129 199.221 66.0269C199.221 65.1098 199.483 64.3237 199.877 63.6687C200.271 63.0137 200.927 62.3586 201.583 61.9656C202.37 61.5726 203.158 61.3105 204.076 61.3105C204.995 61.3105 205.782 61.5726 206.569 61.9656C207.357 62.3586 207.882 62.8827 208.275 63.6687C208.669 64.3237 208.932 65.2408 208.932 66.1579C208.932 67.0749 208.669 67.861 208.275 68.647C207.882 69.3021 207.226 69.9571 206.569 70.3501C205.782 70.7432 204.995 71.0052 204.076 71.0052C203.158 71.0052 202.239 70.6122 201.583 70.0881ZM206.176 69.5641C206.832 69.1711 207.357 68.778 207.619 68.123C208.013 67.468 208.144 66.8129 208.144 66.0269C208.144 65.2408 208.013 64.5858 207.619 63.9307C207.226 63.2757 206.701 62.7516 206.176 62.4896C205.52 62.0966 204.864 61.9656 204.076 61.9656C203.289 61.9656 202.633 62.0966 201.976 62.4896C201.32 62.8826 200.795 63.2757 200.533 63.9307C200.139 64.5858 200.008 65.2408 200.008 66.0269C200.008 66.8129 200.139 67.468 200.533 68.123C200.927 68.778 201.452 69.3021 201.976 69.5641C202.633 69.9571 203.289 70.0881 204.076 70.0881C204.864 70.0881 205.52 69.9571 206.176 69.5641Z" fill="white"/>
<path d="M217.462 69.695C216.805 69.0399 216.543 67.9918 216.543 66.6818V61.4414H217.199V66.6818C217.199 67.8608 217.462 68.6469 217.986 69.3019C218.511 69.826 219.299 70.219 220.217 70.219C221.267 70.219 221.923 69.957 222.448 69.3019C222.973 68.7779 223.236 67.8608 223.236 66.6818V61.4414H223.892V66.6818C223.892 67.9918 223.498 69.0399 222.842 69.695C222.186 70.35 221.267 70.743 220.086 70.743C219.036 70.743 218.118 70.481 217.462 69.695Z" fill="white"/>
<path d="M241.869 61.9654V65.8957H246.856V66.5507H241.869V70.612H241.213V61.4414H247.512V62.0964H241.869V61.9654Z" fill="white"/>
<path d="M255.911 69.695C255.255 69.0399 254.992 67.9918 254.992 66.6818V61.4414H255.648V66.6818C255.648 67.8608 255.911 68.6469 256.436 69.3019C256.961 69.826 257.748 70.219 258.667 70.219C259.716 70.219 260.373 69.957 260.897 69.3019C261.422 68.7779 261.685 67.8608 261.685 66.6818V61.4414H262.341V66.6818C262.341 67.9918 261.947 69.0399 261.291 69.695C260.635 70.35 259.716 70.743 258.535 70.743C257.486 70.743 256.567 70.481 255.911 69.695Z" fill="white"/>
<path d="M277.432 70.743L275.201 67.5988C274.808 67.5988 274.545 67.7298 274.283 67.7298H271.658V70.743H271.002V61.4414H274.414C275.595 61.4414 276.514 61.7034 277.17 62.2275C277.826 62.7515 278.22 63.5375 278.22 64.5856C278.22 65.3717 278.088 65.8957 277.695 66.4197C277.301 66.9438 276.776 67.3368 276.12 67.4678L278.482 70.743H277.432ZM274.283 67.0748C275.332 67.0748 275.989 66.8128 276.514 66.4197C277.038 66.0267 277.301 65.3717 277.301 64.5856C277.301 63.7996 277.038 63.1445 276.514 62.7515C275.989 62.3585 275.201 62.0964 274.283 62.0964H271.658V67.2058H274.283V67.0748Z" fill="white"/>
<path d="M287.537 61.9654H284.125V61.4414H291.474V62.0964H288.062V70.874H287.406V61.9654H287.537Z" fill="white"/>
<path d="M306.172 61.4414V70.743H305.516V66.2887H299.217V70.743H298.561V61.4414H299.217V65.7647H305.516V61.4414H306.172Z" fill="white"/>
<path d="M321.262 70.088V70.743H314.832V61.4414H321.131V62.0964H315.619V65.7647H320.606V66.4197H315.619V70.219H321.262V70.088Z" fill="white"/>
<path d="M335.567 70.743L333.336 67.5988C332.942 67.5988 332.68 67.7298 332.417 67.7298H329.793V70.743H329.137V61.4414H332.549C333.73 61.4414 334.648 61.7034 335.304 62.2275C335.961 62.7515 336.354 63.5375 336.354 64.5856C336.354 65.3717 336.223 65.8957 335.829 66.4197C335.436 66.9438 334.911 67.3368 334.255 67.4678L336.617 70.743H335.567ZM332.417 67.0748C333.467 67.0748 334.123 66.8128 334.648 66.4197C335.173 66.0267 335.436 65.3717 335.436 64.5856C335.436 63.7996 335.173 63.1445 334.648 62.7515C334.123 62.3585 333.336 62.0964 332.417 62.0964H329.793V67.2058H332.417V67.0748Z" fill="white"/>
<path d="M352.888 70.743V62.7515L348.952 69.4329H348.558L344.621 62.7515V70.743H343.965V61.4414H344.49L348.689 68.6469L352.888 61.4414H353.413V70.743H352.888Z" fill="white"/>
<path d="M363.651 70.0881C362.864 69.6951 362.339 69.1711 361.945 68.385C361.552 67.73 361.289 66.8129 361.289 66.0269C361.289 65.1098 361.552 64.3237 361.945 63.6687C362.339 63.0137 362.995 62.3586 363.651 61.9656C364.307 61.5726 365.226 61.3105 366.145 61.3105C367.063 61.3105 367.851 61.5726 368.638 61.9656C369.425 62.3586 369.95 62.8827 370.344 63.6687C370.738 64.3237 371 65.2408 371 66.1579C371 67.0749 370.738 67.861 370.344 68.647C369.95 69.3021 369.294 69.9571 368.638 70.3501C367.851 70.7432 367.063 71.0052 366.145 71.0052C365.226 71.0052 364.307 70.6122 363.651 70.0881ZM368.244 69.5641C368.9 69.1711 369.425 68.778 369.688 68.123C370.081 67.468 370.213 66.8129 370.213 66.0269C370.213 65.2408 370.081 64.5858 369.688 63.9307C369.294 63.2757 368.769 62.7516 368.244 62.4896C367.588 62.0966 366.932 61.9656 366.145 61.9656C365.357 61.9656 364.701 62.0966 364.045 62.4896C363.389 62.8826 362.864 63.2757 362.601 63.9307C362.208 64.5858 362.076 65.2408 362.076 66.0269C362.076 66.8129 362.208 67.468 362.601 68.123C362.995 68.778 363.52 69.3021 364.045 69.5641C364.701 69.9571 365.357 70.0881 366.145 70.0881C366.932 70.0881 367.588 69.9571 368.244 69.5641Z" fill="white"/>
<path d="M385.17 70.743L382.94 67.5988C382.546 67.5988 382.283 67.7298 382.021 67.7298H379.396V70.743H378.74V61.4414H382.152C383.333 61.4414 384.252 61.7034 384.908 62.2275C385.564 62.7515 385.958 63.5375 385.958 64.5856C385.958 65.3717 385.827 65.8957 385.433 66.4197C385.039 66.9438 384.514 67.3368 383.858 67.4678L386.22 70.743H385.17ZM382.021 67.0748C383.071 67.0748 383.727 66.8128 384.252 66.4197C384.777 66.0267 385.039 65.3717 385.039 64.5856C385.039 63.7996 384.777 63.1445 384.252 62.7515C383.727 62.3585 382.94 62.0964 382.021 62.0964H379.396V67.2058H382.021V67.0748Z" fill="white"/>
<path d="M400.001 70.088V70.743H393.57V61.4414H399.869V62.0964H394.358V65.7647H399.344V66.4197H394.358V70.219H400.001V70.088Z" fill="white"/>
</svg>
