<?xml version="1.0" encoding="utf-8"?>
<!-- Generator: Adobe Illustrator 25.2.0, SVG Export Plug-In . SVG Version: 6.00 Build 0)  -->
<svg version="1.1" id="Layer_1" xmlns="http://www.w3.org/2000/svg" xmlns:xlink="http://www.w3.org/1999/xlink" x="0px" y="0px"
	 viewBox="0 0 306.8 54.3" style="enable-background:new 0 0 306.8 54.3;" xml:space="preserve">
<style type="text/css">
	.st0{clip-path:url(#SVGID_2_);}
	.st1{fill:#07725B;}
	.st2{fill:#010100;}
	.st3{fill:#091821;}
	.st4{fill:#05735B;}
	.st5{fill:#0A1821;}
</style>
<g>
	<g>
		<path class="st4" d="M39.9,0.2h-7.2l-2.1,6.4h8.1l8.4,25.9L28.4,46.2v7.9L51.9,37c1.7-1.2,2.4-3.4,1.8-5.4L44.5,3.5
			C43.9,1.5,42,0.2,39.9,0.2z"/>
		<path class="st4" d="M20.9,29.7L20.9,29.7l9.6-29.6H14.9c-2.1,0-4,1.4-4.6,3.3L1.2,31.6c-0.6,2,0.1,4.2,1.8,5.4l23.5,17.1v-7.9
			l-8.8-6.4L20.9,29.7z M7.6,32.5L16,6.6h5.7l-9.5,29.3L7.6,32.5z"/>
	</g>
	<g>
		<path class="st5" d="M70.4,34.9c0,1.9,0.3,3.2,1,3.8c0.7,0.7,2,1,4.1,1.1v0.4c-9.1-0.1-14.1-0.1-15,0v-0.4
			c1.7-0.1,2.8-0.4,3.3-1.1c0.5-0.7,0.8-1.9,0.8-3.8V9.1c0-1.8-0.2-2.9-0.7-3.4c-0.5-0.5-1.6-0.8-3.3-0.9V4.2
			c9.1,0,14.1,0.1,14.9,0.1c3.9,0,6.9,0.9,9,2.7c2.1,1.8,3.1,4.2,3.1,7.2c0,1.3-0.2,2.6-0.6,3.8c-0.4,1.2-1.1,2.4-2.1,3.6
			c-0.9,1.2-2.3,2.1-4.2,2.8c-1.8,0.7-4,1.1-6.4,1.1h-3.9V34.9z M70.4,9.1v16h3.4c1.3,0,2.5-0.2,3.4-0.6c0.9-0.4,1.6-0.8,2.1-1.3
			c0.5-0.5,0.8-1.3,1-2.3c0.2-1,0.4-1.9,0.4-2.5c0-0.6,0.1-1.6,0.1-2.9c0-0.3,0-0.5,0-0.6c0-1.5,0-2.6-0.1-3.5
			c-0.1-0.9-0.2-1.8-0.4-2.7c-0.2-0.9-0.6-1.7-1-2.1C78.7,6,78,5.6,77.2,5.3c-0.8-0.3-1.8-0.5-3-0.5c-1.5,0-2.5,0.3-3,0.8
			C70.7,6.2,70.4,7.3,70.4,9.1z"/>
		<path class="st5" d="M112.9,25.4H97.2c-0.7,9,1.5,13.8,6.4,14.2c1.5,0.1,3-0.3,4.6-1.3c1.6-1,2.8-2.6,3.5-4.8c0.1,0,0.2,0,0.3,0.1
			c0.1,0.1,0.2,0.1,0.3,0.1c-0.7,2-1.8,3.6-3.4,4.9c-1.6,1.2-3.4,1.9-5.5,1.9c-4.2,0-7.5-1.2-9.9-3.6c-2.3-2.5-3.5-5.7-3.5-9.8
			c-0.1-3.7,1.1-7,3.4-9.8c2.3-2.8,5.6-4.1,9.7-4.1c1.3,0,2.5,0.2,3.6,0.7c1.1,0.4,2.2,1.1,3.2,2c1,0.9,1.7,2.2,2.3,3.8
			C112.8,21.3,113,23.2,112.9,25.4z M108,24.9c0.6-3,0.4-5.6-0.7-7.7c-1-2.1-2.4-3.2-4.1-3.3c-0.7-0.1-1.4,0.1-2,0.6
			c-0.6,0.5-1.3,1.3-2,2.6c-1,1.7-1.6,4.3-2,7.8H108z"/>
		<path class="st5" d="M139.8,36.2c0,1.4,0.3,2.3,0.8,2.8c0.6,0.5,1.6,0.8,3,0.8v0.5h-13.5v-0.5c1.3,0,2.2-0.2,2.8-0.6
			c0.6-0.4,0.9-1.1,1-2.2v-8.5c0-0.8,0-1.7,0-2.9s0-1.9,0-2.5c0-0.5,0-1.1,0-1.9c0-0.7,0-1.3-0.1-1.6c-0.1-0.4-0.1-0.8-0.2-1.2
			c-0.1-0.5-0.2-0.8-0.3-1.2c-0.1-0.3-0.3-0.6-0.4-0.9c-0.5-1-1.4-1.5-2.5-1.7c-1.1-0.2-2.3,0.1-3.5,0.8c-1.4,0.8-2.5,2.1-3.2,3.7
			c-0.7,1.7-1.1,3.4-1.1,5.3V27c0,1.3,0,3,0,5.1c0,2.1,0,3.5,0,4.1c0,1.4,0.3,2.3,0.8,2.8c0.6,0.5,1.5,0.8,3,0.8v0.5h-13.6v-0.5
			c1.4,0,2.4-0.3,3-0.8s0.8-1.5,0.8-2.8V27l-0.1-8c0-0.5-0.2-0.7-0.6-0.7h-0.3v-0.5c3.5-0.3,5.6-1.7,6.6-4.2h0.4v6.2
			c0.3-1.1,0.9-2.2,1.8-3.2c0.8-1,1.6-1.7,2.3-2.1c1.5-0.8,3.3-1.2,5.4-1.2c2,0.1,3.6,0.5,4.6,1.3c0.5,0.3,0.9,0.7,1.3,1.2
			c0.4,0.4,0.6,0.9,0.9,1.4c0.2,0.5,0.4,1.1,0.5,1.7c0.1,0.6,0.2,1.3,0.3,1.9c0.1,0.7,0.1,1.4,0.1,2.2c0,0.8,0,1.6,0,2.4
			c0,0.8,0,1.7,0,2.5V36.2z"/>
		<path class="st5" d="M152.4,13.7v22.5c0,0.8,0,1.3,0.1,1.7c0.1,0.4,0.1,0.7,0.3,0.9c0.1,0.2,0.4,0.3,0.7,0.2
			c0.3-0.1,0.7-0.3,1.2-0.7c0,0,0.1,0.1,0.1,0.1s0.1,0.1,0.1,0.1c0,0,0.1,0.1,0.1,0.1c-1.4,1-2.8,1.5-4.2,1.5c-2.1,0-3.4-0.8-4-2.3
			c0-0.1-0.1-0.3-0.1-0.6c-0.1-0.3-0.1-0.7-0.1-1.2c0-0.5,0-1-0.1-1.6c0-0.5,0-1.3-0.1-2.2c0-0.9,0-1.8,0-2.6c0-0.8,0-1.9,0-3.2
			c0-1.4,0-2.6,0-3.7c0-1.1,0-2.5,0-4.3c0-1.8,0-3.4,0-4.8h-2.6v-0.5h2.6l0.1-2.5c0-0.5-0.2-0.7-0.7-0.7h-0.3V9.4
			c3.4-0.3,5.6-1.7,6.6-4.3h0.4v8h2.6v0.5H152.4z"/>
		<path class="st5" d="M176.9,36.2c0,1.4,0.3,2.3,0.8,2.8s1.5,0.8,3,0.8v0.5h-7.5c-1.4,0-2.2-0.9-2.2-2.8c-1.4,1.7-3.2,2.6-5.3,2.9
			c-1.5,0.2-3,0-4.3-0.6c-1.3-0.6-2.3-1.4-2.9-2.5c-0.6-1.1-0.6-2.5,0.1-4.2c0.6-1.7,2-3.5,4.2-5.3c2.1-1.8,4.9-3.7,8.3-5.5
			c0-1-0.1-1.9-0.1-2.7c0-3.6-1.6-5.4-4.7-5.4c-1.9,0-3.7,0.5-5.3,1.5c-0.1,0.1-0.1,0.2,0.1,0.3c0.8,0,1.5,0.3,2.1,0.9
			c0.6,0.6,0.9,1.3,0.9,2.2c0,0.8-0.2,1.5-0.8,2.1c-0.6,0.6-1.2,0.9-2,1c-0.9,0-1.7-0.2-2.3-0.8c-0.7-0.6-1-1.3-1-2.2
			c0-1.6,1-2.9,2.9-4c1.9-1.1,4.1-1.6,6.6-1.6c6.3,0,9.5,3,9.5,8.9L176.9,36.2z M164.1,35.4c0.8,1.5,1.9,2.4,3.4,2.6
			c1.4,0.2,2.6-0.2,3.5-1.2V22.6c-3.6,2.3-5.8,4.2-6.7,5.7C163,30.5,162.9,32.9,164.1,35.4z"/>
		<path class="st5" d="M202.4,33.7c0.3,0.1,0.5,0.2,0.6,0.2c-0.7,2-1.8,3.6-3.3,4.9c-1.6,1.2-3.4,1.9-5.6,1.9
			c-3.7,0-6.8-1.1-9.4-3.5c-2.5-2.4-3.8-5.8-3.8-10.4c0-2.2,0.4-4.2,1.3-6.1c0.9-1.8,2.1-3.3,3.5-4.4c1.5-1.1,3-2,4.7-2.5
			c1.7-0.6,3.4-0.7,5.2-0.5c1.8,0.2,3.3,0.8,4.7,1.8c1.9,1.3,2.8,2.7,2.8,4.3c0,0.9-0.3,1.6-1,2.2c-0.7,0.6-1.4,0.9-2.3,0.8
			c-0.8,0-1.5-0.4-2.1-0.9c-0.5-0.6-0.8-1.3-0.8-2.1c0-0.7,0.2-1.4,0.7-1.9c0.5-0.6,1-0.9,1.7-1.1c0.2,0,0.4-0.2,0.4-0.4
			c0.1-0.3,0-0.5-0.2-0.6c-1.5-0.9-2.9-1.4-4.2-1.5c-1.3-0.1-2.5,0.3-3.6,1.1c-1.1,0.8-2,2.1-2.7,4.1c-0.7,2-1.1,4.5-1.3,7.5
			c-0.2,4.4,0.3,7.7,1.5,9.8c1.2,2.1,2.8,3.2,4.8,3.4c1.5,0.1,3-0.3,4.6-1.3S201.6,35.9,202.4,33.7z"/>
		<path class="st5" d="M227.2,16.4c2.2,2.3,3.3,5.7,3.3,10.3c0,4.6-1.1,8-3.3,10.3c-2.2,2.3-5,3.4-8.5,3.4c-3.5,0-6.3-1.1-8.5-3.4
			c-2.2-2.3-3.3-5.7-3.3-10.3c0-4.6,1.1-8,3.3-10.3c2.2-2.3,5-3.4,8.5-3.4C222.2,13,225,14.1,227.2,16.4z M214.9,16.6
			c-0.7,2-1.1,5.4-1.1,10.1c0,4.7,0.4,8.1,1.1,10.1c0.7,2.1,2,3.1,3.8,3.1c1.8,0,3.1-1,3.8-3.1c0.7-2.1,1.1-5.4,1.1-10.2
			c0-4.7-0.4-8-1.1-10.1c-0.7-2-2-3.1-3.8-3.1C216.9,13.6,215.6,14.6,214.9,16.6z"/>
		<path class="st5" d="M259.6,39.7v0.5h-6.2c-0.5,0-0.9-0.1-1.3-0.3c-0.3-0.2-0.5-0.5-0.6-0.8c-0.1-0.3-0.2-0.7-0.3-1.1
			c-0.1-0.4-0.1-0.8-0.1-1.2c0-0.4,0-0.8,0-1.1c-1.3,3.1-3.6,4.6-7.1,4.6c-3.3,0-5.8-1.2-7.6-3.5c-1.8-2.3-2.7-5.7-2.7-10.2
			c0-4.4,1.1-7.8,3.3-10.2c2.2-2.4,4.9-3.6,8.1-3.6c2.8,0,4.9,1,6.1,3c0-5.1,0.1-8.6,0.1-10.4c0-0.5-0.2-0.7-0.7-0.7h-0.3V4.2
			c3.4-0.3,5.6-1.6,6.5-4.1h0.4v22v16c0.1,0.6,0.3,1,0.6,1.3C258,39.6,258.6,39.7,259.6,39.7z M251.2,33.7V17.3
			c-0.9-2.5-2.8-3.7-5.6-3.7c-1.9,0-3.2,0.8-3.7,2.5c-0.6,1.7-0.9,4.7-0.8,9.2c0,1,0,2,0,2.9s0,1.8,0.1,2.6c0,0.8,0.1,1.6,0.2,2.4
			c0.1,0.7,0.2,1.4,0.3,2c0.1,0.6,0.3,1.2,0.5,1.6c0.2,0.5,0.5,0.9,0.8,1.2c0.3,0.3,0.7,0.6,1.1,0.7c0.4,0.2,0.9,0.3,1.5,0.3
			c1.4,0,2.6-0.4,3.6-1.3C250.1,36.9,250.8,35.5,251.2,33.7z"/>
		<path class="st5" d="M284.7,25.4H269c-0.7,9,1.5,13.8,6.4,14.2c1.5,0.1,3-0.3,4.6-1.3c1.6-1,2.8-2.6,3.5-4.8c0.1,0,0.2,0,0.3,0.1
			c0.1,0.1,0.2,0.1,0.3,0.1c-0.7,2-1.8,3.6-3.4,4.9c-1.6,1.2-3.4,1.9-5.5,1.9c-4.2,0-7.5-1.2-9.9-3.6c-2.3-2.5-3.5-5.7-3.5-9.8
			c-0.1-3.7,1.1-7,3.4-9.8c2.3-2.8,5.6-4.1,9.7-4.1c1.3,0,2.5,0.2,3.6,0.7c1.1,0.4,2.2,1.1,3.2,2c1,0.9,1.7,2.2,2.3,3.8
			C284.6,21.3,284.8,23.2,284.7,25.4z M279.8,24.9c0.6-3,0.4-5.6-0.7-7.7c-1-2.1-2.4-3.2-4.1-3.3c-0.7-0.1-1.4,0.1-2,0.6
			c-0.6,0.5-1.3,1.3-2,2.6c-1,1.7-1.6,4.3-2,7.8H279.8z"/>
		<path class="st5" d="M301,14.9c0.4,0.3,0.8,0.5,1.1,0.7c0.3,0.2,0.5,0.2,0.7,0.1c0.2-0.1,0.3-0.2,0.5-0.2c0.1-0.1,0.2-0.3,0.3-0.6
			c0.1-0.4,0.1-0.6,0.1-0.8c0-0.2,0.1-0.5,0.1-0.9h0.4c-0.1,1.8-0.2,4.7-0.2,8.6h-0.4c-0.3-2.2-1.2-4-2.5-5.7
			c-1.3-1.6-3-2.4-5.2-2.4c-1.2,0-2.1,0.4-2.7,1.2c-0.6,0.8-0.9,1.8-0.9,3.1c0,0.5,0.1,0.9,0.3,1.4c0.2,0.5,0.4,0.8,0.6,1.2
			c0.2,0.3,0.6,0.7,1.1,1.1c0.5,0.4,0.9,0.7,1.3,0.9c0.3,0.2,0.8,0.6,1.6,1.1c0.8,0.5,1.3,0.8,1.6,1.1c2.3,1.5,4.1,2.9,5.2,4.1
			c1.1,1.2,1.7,2.8,1.7,4.7c0,2.2-0.9,3.9-2.7,5.2c-1.8,1.2-4,1.9-6.4,1.9c-1.5,0-2.8-0.2-4-0.7c-0.5-0.2-0.9-0.5-1.3-0.7
			c-0.4-0.3-0.6-0.5-0.8-0.6c-0.2-0.1-0.3-0.2-0.5-0.2c-0.4,0-0.8,0.2-1.1,0.6c-0.4,0.4-0.6,0.8-0.6,1.3h-0.4
			c0.1-1.9,0.2-5.3,0.2-10.1h0.4c0.1,3,0.8,5.4,2.1,7.2c1.3,1.8,3.2,2.6,5.7,2.6c1.1,0,2.1-0.5,3-1.4c0.9-0.9,1.3-2.2,1.3-3.9
			c0-0.7-0.1-1.3-0.4-1.9c-0.3-0.6-0.7-1.2-1.4-1.8c-0.7-0.6-1.3-1.1-1.7-1.4c-0.5-0.3-1.3-0.8-2.4-1.6c-1.3-0.8-2.2-1.4-2.7-1.8
			c-0.5-0.4-1.2-0.9-2-1.7c-0.8-0.8-1.4-1.5-1.7-2.3c-0.3-0.8-0.5-1.7-0.5-2.7c0-2.1,0.8-3.7,2.4-4.8c1.6-1.1,3.5-1.7,5.6-1.7
			C297.7,13,299.5,13.6,301,14.9z"/>
	</g>
	<g>
		<path class="st5" d="M70.7,47l-2.4,7.1h-0.5l-2.2-6.4l-2.2,6.4h-0.5L60.4,47h0.5l2.2,6.4l2.2-6.4h0.5l2.2,6.4l2.2-6.4H70.7z"/>
		<path class="st5" d="M81.2,53.6v0.5h-4.9V47h4.8v0.5h-4.2v2.8h3.8v0.5h-3.8v2.9H81.2z"/>
		<path class="st5" d="M95.2,47.4h-2.6V47h5.6v0.5h-2.6v6.7h-0.5V47.4z"/>
		<path class="st5" d="M107.7,52.1h-4.1l-0.9,2h-0.6l3.3-7.1h0.5l3.3,7.1h-0.6L107.7,52.1z M107.5,51.6l-1.9-4.1l-1.9,4.1H107.5z"/>
		<path class="st5" d="M116.6,50.6l-1.6,1.6v1.9h-0.5V47h0.5v4.6l4.4-4.6h0.6l-3.1,3.2l3.3,3.9h-0.6L116.6,50.6z"/>
		<path class="st5" d="M130.7,53.6v0.5h-4.9V47h4.8v0.5h-4.2v2.8h3.8v0.5h-3.8v2.9H130.7z"/>
		<path class="st5" d="M145.5,51.6v2.5H145v-2.5l-2.9-4.7h0.6l2.6,4.2l2.6-4.2h0.5L145.5,51.6z"/>
		<path class="st5" d="M154.6,53.6c-0.6-0.3-1-0.7-1.3-1.3c-0.3-0.5-0.5-1.2-0.5-1.8c0-0.7,0.2-1.3,0.5-1.8c0.3-0.5,0.8-1,1.3-1.3
			c0.6-0.3,1.2-0.5,1.9-0.5s1.3,0.2,1.9,0.5c0.6,0.3,1,0.7,1.3,1.3c0.3,0.5,0.5,1.2,0.5,1.9s-0.2,1.3-0.5,1.9
			c-0.3,0.5-0.8,1-1.3,1.3c-0.6,0.3-1.2,0.5-1.9,0.5S155.1,54,154.6,53.6z M158.1,53.2c0.5-0.3,0.9-0.6,1.1-1.1
			c0.3-0.5,0.4-1,0.4-1.6c0-0.6-0.1-1.1-0.4-1.6c-0.3-0.5-0.7-0.9-1.1-1.1c-0.5-0.3-1-0.4-1.6-0.4s-1.1,0.1-1.6,0.4
			c-0.5,0.3-0.9,0.6-1.1,1.1c-0.3,0.5-0.4,1-0.4,1.6c0,0.6,0.1,1.1,0.4,1.6c0.3,0.5,0.7,0.9,1.1,1.1c0.5,0.3,1,0.4,1.6,0.4
			S157.6,53.5,158.1,53.2z"/>
		<path class="st5" d="M166.7,53.3c-0.5-0.5-0.7-1.3-0.7-2.3V47h0.5V51c0,0.9,0.2,1.5,0.6,2c0.4,0.4,1,0.7,1.7,0.7
			c0.8,0,1.3-0.2,1.7-0.7c0.4-0.4,0.6-1.1,0.6-2V47h0.5V51c0,1-0.3,1.8-0.8,2.3c-0.5,0.5-1.2,0.8-2.1,0.8
			C167.9,54.1,167.2,53.9,166.7,53.3z"/>
		<path class="st5" d="M185.3,47.4v3h3.8v0.5h-3.8v3.1h-0.5V47h4.8v0.5H185.3z"/>
		<path class="st5" d="M196,53.3c-0.5-0.5-0.7-1.3-0.7-2.3V47h0.5V51c0,0.9,0.2,1.5,0.6,2c0.4,0.4,1,0.7,1.7,0.7
			c0.8,0,1.3-0.2,1.7-0.7c0.4-0.4,0.6-1.1,0.6-2V47h0.5V51c0,1-0.3,1.8-0.8,2.3c-0.5,0.5-1.2,0.8-2.1,0.8
			C197.2,54.1,196.5,53.9,196,53.3z"/>
		<path class="st5" d="M212.4,54.1l-1.7-2.4c-0.3,0-0.5,0.1-0.7,0.1h-2v2.3h-0.5V47h2.6c0.9,0,1.6,0.2,2.1,0.6
			c0.5,0.4,0.8,1,0.8,1.8c0,0.6-0.1,1-0.4,1.4c-0.3,0.4-0.7,0.7-1.2,0.8l1.8,2.5H212.4z M210,51.3c0.8,0,1.3-0.2,1.7-0.5
			c0.4-0.3,0.6-0.8,0.6-1.4c0-0.6-0.2-1.1-0.6-1.4c-0.4-0.3-1-0.5-1.7-0.5h-2v3.9H210z"/>
		<path class="st5" d="M220.1,47.4h-2.6V47h5.6v0.5h-2.6v6.7h-0.5V47.4z"/>
		<path class="st5" d="M234.3,47v7.1h-0.5v-3.4h-4.8v3.4h-0.5V47h0.5v3.3h4.8V47H234.3z"/>
		<path class="st5" d="M245.8,53.6v0.5h-4.9V47h4.8v0.5h-4.2v2.8h3.8v0.5h-3.8v2.9H245.8z"/>
		<path class="st5" d="M256.7,54.1l-1.7-2.4c-0.3,0-0.5,0.1-0.7,0.1h-2v2.3h-0.5V47h2.6c0.9,0,1.6,0.2,2.1,0.6
			c0.5,0.4,0.8,1,0.8,1.8c0,0.6-0.1,1-0.4,1.4c-0.3,0.4-0.7,0.7-1.2,0.8l1.8,2.5H256.7z M254.3,51.3c0.8,0,1.3-0.2,1.7-0.5
			c0.4-0.3,0.6-0.8,0.6-1.4c0-0.6-0.2-1.1-0.6-1.4c-0.4-0.3-1-0.5-1.7-0.5h-2v3.9H254.3z"/>
		<path class="st5" d="M269.9,54.1l0-6.1l-3,5.1h-0.3l-3-5.1v6.1h-0.5V47h0.4l3.2,5.5l3.2-5.5h0.4l0,7.1H269.9z"/>
		<path class="st5" d="M278.1,53.6c-0.6-0.3-1-0.7-1.3-1.3c-0.3-0.5-0.5-1.2-0.5-1.8c0-0.7,0.2-1.3,0.5-1.8c0.3-0.5,0.8-1,1.3-1.3
			s1.2-0.5,1.9-0.5s1.3,0.2,1.9,0.5c0.6,0.3,1,0.7,1.3,1.3c0.3,0.5,0.5,1.2,0.5,1.9s-0.2,1.3-0.5,1.9c-0.3,0.5-0.8,1-1.3,1.3
			c-0.6,0.3-1.2,0.5-1.9,0.5S278.6,54,278.1,53.6z M281.6,53.2c0.5-0.3,0.9-0.6,1.1-1.1c0.3-0.5,0.4-1,0.4-1.6
			c0-0.6-0.1-1.1-0.4-1.6c-0.3-0.5-0.7-0.9-1.1-1.1c-0.5-0.3-1-0.4-1.6-0.4s-1.1,0.1-1.6,0.4c-0.5,0.3-0.9,0.6-1.1,1.1
			c-0.3,0.5-0.4,1-0.4,1.6c0,0.6,0.1,1.1,0.4,1.6c0.3,0.5,0.7,0.9,1.1,1.1c0.5,0.3,1,0.4,1.6,0.4S281.1,53.5,281.6,53.2z"/>
		<path class="st5" d="M294.5,54.1l-1.7-2.4c-0.3,0-0.5,0.1-0.7,0.1h-2v2.3h-0.5V47h2.6c0.9,0,1.6,0.2,2.1,0.6
			c0.5,0.4,0.8,1,0.8,1.8c0,0.6-0.1,1-0.4,1.4c-0.3,0.4-0.7,0.7-1.2,0.8l1.8,2.5H294.5z M292.1,51.3c0.8,0,1.3-0.2,1.7-0.5
			c0.4-0.3,0.6-0.8,0.6-1.4c0-0.6-0.2-1.1-0.6-1.4c-0.4-0.3-1-0.5-1.7-0.5h-2v3.9H292.1z"/>
		<path class="st5" d="M305.8,53.6v0.5h-4.9V47h4.8v0.5h-4.2v2.8h3.8v0.5h-3.8v2.9H305.8z"/>
	</g>
</g>
</svg>
