<svg width="373" height="442" viewBox="0 0 373 442" fill="none" xmlns="http://www.w3.org/2000/svg">
<g style="mix-blend-mode:multiply">
<rect width="373" height="442" fill="#07725B" fill-opacity="0.5"/>
</g>
<path d="M74.8414 371.251C74.8414 373.121 75.1367 374.4 75.8257 374.991C76.5146 375.68 77.7941 375.975 79.8609 376.073V376.467C70.9046 376.369 65.9835 376.369 65.0977 376.467V376.073C66.7709 375.975 67.8535 375.68 68.3456 374.991C68.8377 374.302 69.133 373.121 69.133 371.251L69.133 345.858C69.133 344.086 68.9362 343.004 68.444 342.512C67.9519 342.02 66.8693 341.724 65.1961 341.626V341.035C74.1525 341.035 79.0736 341.134 79.8609 341.134C83.6994 341.134 86.652 342.02 88.7189 343.791C90.7857 345.563 91.7699 347.925 91.7699 350.878C91.7699 352.157 91.5731 353.437 91.1794 354.618C90.7857 355.799 90.0968 356.98 89.1126 358.161C88.2268 359.342 86.8489 360.228 84.9789 360.917C83.2073 361.605 81.042 361.999 78.6799 361.999H74.8414L74.8414 371.251ZM74.8414 345.858L74.8414 361.605H78.1878C79.4673 361.605 80.6483 361.409 81.5341 361.015C82.4199 360.621 83.1088 360.228 83.601 359.735C84.0931 359.243 84.3883 358.456 84.5852 357.472C84.782 356.488 84.9789 355.602 84.9789 355.011C84.9789 354.421 85.0773 353.437 85.0773 352.157C85.0773 351.862 85.0773 351.665 85.0773 351.566C85.0773 350.09 85.0773 349.008 84.9789 348.122C84.8804 347.236 84.782 346.35 84.5852 345.464C84.3883 344.579 83.9946 343.791 83.601 343.398C83.0104 342.807 82.3215 342.413 81.5341 342.118C80.7467 341.823 79.7625 341.626 78.5815 341.626C77.1051 341.626 76.1209 341.921 75.6288 342.413C75.1367 343.004 74.8414 344.086 74.8414 345.858Z" fill="white"/>
<path d="M116.669 361.901L101.217 361.901C100.528 370.759 102.693 375.483 107.516 375.877C108.992 375.975 110.469 375.582 112.043 374.597C113.618 373.613 114.799 372.038 115.488 369.873C115.587 369.873 115.685 369.873 115.783 369.972C115.882 370.07 115.98 370.07 116.079 370.07C115.39 372.038 114.307 373.613 112.732 374.893C111.158 376.074 109.386 376.763 107.319 376.763C103.185 376.763 99.9376 375.582 97.5754 373.219C95.3117 370.759 94.1307 367.609 94.1307 363.574C94.0323 359.933 95.2133 356.685 97.477 353.929C99.7407 351.173 102.989 349.894 107.024 349.894C108.303 349.894 109.484 350.09 110.567 350.583C111.65 350.976 112.732 351.665 113.717 352.551C114.701 353.437 115.39 354.716 115.98 356.291C116.571 357.866 116.768 359.736 116.669 361.901ZM111.847 361.409C112.437 358.456 112.24 355.897 111.158 353.83C110.173 351.764 108.795 350.681 107.122 350.583C106.433 350.484 105.744 350.681 105.154 351.173C104.563 351.665 103.874 352.453 103.185 353.732C102.201 355.405 101.611 357.964 101.217 361.409L111.847 361.409Z" fill="white"/>
<path d="M143.146 372.531C143.146 373.909 143.441 374.794 143.933 375.287C144.524 375.779 145.508 376.074 146.886 376.074V376.566L133.599 376.566V376.074C134.879 376.074 135.764 375.877 136.355 375.483C136.946 375.09 137.241 374.401 137.339 373.318V364.952C137.339 364.165 137.339 363.279 137.339 362.098C137.339 360.917 137.339 360.228 137.339 359.637C137.339 359.145 137.339 358.555 137.339 357.767C137.339 357.079 137.339 356.488 137.241 356.193C137.142 355.799 137.142 355.405 137.044 355.012C136.946 354.52 136.847 354.224 136.749 353.831C136.65 353.535 136.453 353.24 136.355 352.945C135.863 351.961 134.977 351.469 133.894 351.272C132.812 351.075 131.631 351.37 130.45 352.059C129.072 352.846 127.989 354.126 127.3 355.701C126.611 357.374 126.218 359.047 126.218 360.917L126.218 363.476C126.218 364.755 126.218 366.429 126.218 368.495C126.218 370.562 126.218 371.94 126.218 372.531C126.218 373.909 126.513 374.794 127.005 375.287C127.595 375.779 128.481 376.074 129.958 376.074V376.566H116.572V376.074C117.95 376.074 118.934 375.779 119.525 375.287C120.115 374.794 120.312 373.81 120.312 372.531L120.312 363.476L120.214 355.602C120.214 355.11 120.017 354.913 119.623 354.913H119.328V354.421C122.773 354.126 124.84 352.748 125.824 350.287H126.218L126.218 356.39C126.513 355.307 127.103 354.224 127.989 353.24C128.777 352.256 129.564 351.567 130.253 351.173C131.729 350.386 133.501 349.992 135.568 349.992C137.536 350.091 139.111 350.484 140.095 351.272C140.587 351.567 140.981 351.961 141.374 352.453C141.768 352.846 141.965 353.339 142.26 353.831C142.457 354.323 142.654 354.913 142.752 355.504C142.851 356.094 142.949 356.783 143.048 357.374C143.146 358.063 143.146 358.752 143.146 359.539C143.146 360.326 143.146 361.114 143.146 361.901C143.146 362.689 143.146 363.574 143.146 364.362V372.531Z" fill="white"/>
<path d="M155.546 350.385L155.546 372.53C155.546 373.317 155.546 373.809 155.645 374.203C155.743 374.597 155.743 374.892 155.94 375.089C156.038 375.286 156.334 375.384 156.629 375.286C156.924 375.187 157.318 374.991 157.81 374.597L157.908 374.695L158.007 374.794L158.105 374.892C156.727 375.876 155.349 376.368 153.972 376.368C151.905 376.368 150.625 375.581 150.035 374.105C150.035 374.006 149.936 373.809 149.936 373.514C149.838 373.219 149.838 372.825 149.838 372.333C149.838 371.841 149.838 371.349 149.739 370.758C149.739 370.266 149.739 369.479 149.641 368.593C149.641 367.707 149.641 366.822 149.641 366.034C149.641 365.247 149.641 364.164 149.641 362.885C149.641 361.507 149.641 360.326 149.641 359.243C149.641 358.16 149.641 356.783 149.641 355.011C149.641 353.239 149.641 351.665 149.641 350.287H147.082L147.082 349.795H149.641L149.739 347.334C149.739 346.842 149.543 346.645 149.05 346.645H148.755V346.153C152.102 345.858 154.267 344.48 155.251 341.921H155.645V349.795H158.204V350.287H155.546V350.385Z" fill="white"/>
<path d="M179.66 372.53C179.66 373.908 179.956 374.794 180.448 375.286C180.94 375.778 181.924 376.074 183.4 376.074V376.566L176.019 376.566C174.641 376.566 173.854 375.68 173.854 373.81C172.476 375.483 170.704 376.369 168.637 376.664C167.161 376.861 165.685 376.664 164.405 376.074C163.126 375.483 162.141 374.696 161.551 373.613C160.96 372.53 160.96 371.152 161.649 369.479C162.24 367.806 163.618 366.035 165.783 364.263C167.85 362.491 170.606 360.621 173.952 358.85C173.952 357.866 173.854 356.98 173.854 356.192C173.854 352.649 172.279 350.878 169.228 350.878C167.358 350.878 165.586 351.37 164.011 352.354C163.913 352.452 163.913 352.551 164.11 352.649C164.897 352.649 165.586 352.944 166.177 353.535C166.767 354.126 167.062 354.814 167.062 355.7C167.062 356.488 166.866 357.177 166.275 357.767C165.685 358.358 165.094 358.653 164.307 358.751C163.421 358.751 162.633 358.555 162.043 357.964C161.354 357.373 161.059 356.685 161.059 355.799C161.059 354.224 162.043 352.944 163.913 351.862C165.783 350.779 167.948 350.287 170.409 350.287C176.609 350.287 179.759 353.24 179.759 359.047L179.66 372.53ZM167.062 371.743C167.85 373.219 168.932 374.105 170.409 374.302C171.787 374.499 172.968 374.105 173.854 373.121V359.145C170.31 361.409 168.145 363.279 167.259 364.755C165.98 366.92 165.881 369.282 167.062 371.743Z" fill="white"/>
<path d="M204.758 370.07C205.054 370.168 205.25 370.266 205.349 370.266C204.66 372.235 203.577 373.81 202.101 375.089C200.526 376.27 198.755 376.959 196.589 376.959C192.948 376.959 189.897 375.876 187.338 373.514C184.877 371.152 183.598 367.806 183.598 363.278C183.598 361.113 183.991 359.145 184.877 357.275C185.763 355.503 186.944 354.027 188.322 352.944C189.798 351.862 191.275 350.976 192.948 350.484C194.621 349.893 196.294 349.795 198.066 349.992C199.837 350.188 201.314 350.779 202.691 351.763C204.561 353.043 205.447 354.421 205.447 355.995C205.447 356.881 205.152 357.57 204.463 358.161C203.774 358.751 203.085 359.046 202.199 358.948C201.412 358.948 200.723 358.554 200.132 358.062C199.64 357.472 199.345 356.783 199.345 355.995C199.345 355.306 199.542 354.617 200.034 354.125C200.526 353.535 201.018 353.239 201.707 353.043C201.904 353.043 202.101 352.846 202.101 352.649C202.199 352.354 202.101 352.157 201.904 352.058C200.428 351.173 199.05 350.68 197.77 350.582C196.491 350.484 195.31 350.877 194.227 351.665C193.145 352.452 192.259 353.732 191.57 355.7C190.881 357.668 190.487 360.129 190.29 363.082C190.093 367.412 190.586 370.66 191.767 372.727C192.948 374.794 194.522 375.876 196.491 376.073C197.967 376.172 199.444 375.778 201.018 374.794C202.593 373.81 203.971 372.235 204.758 370.07Z" fill="white"/>
<path d="M229.167 353.043C231.332 355.306 232.415 358.653 232.415 363.18C232.415 367.707 231.332 371.054 229.167 373.317C227.002 375.581 224.246 376.664 220.801 376.664C217.356 376.664 214.601 375.581 212.435 373.317C210.27 371.054 209.187 367.707 209.187 363.18C209.187 358.653 210.27 355.306 212.435 353.043C214.601 350.779 217.356 349.696 220.801 349.696C224.246 349.696 227.002 350.779 229.167 353.043ZM217.061 353.239C216.372 355.208 215.979 358.554 215.979 363.18C215.979 367.806 216.372 371.152 217.061 373.121C217.75 375.187 219.03 376.172 220.801 376.172C222.573 376.172 223.852 375.187 224.541 373.121C225.23 371.054 225.624 367.806 225.624 363.082C225.624 358.456 225.23 355.208 224.541 353.141C223.852 351.173 222.573 350.09 220.801 350.09C219.03 350.287 217.75 351.271 217.061 353.239Z" fill="white"/>
<path d="M261.056 375.975V376.467H254.953C254.461 376.467 254.068 376.369 253.674 376.172C253.379 375.975 253.182 375.68 253.083 375.384C252.985 375.089 252.887 374.695 252.788 374.302C252.69 373.908 252.69 373.514 252.69 373.121C252.69 372.727 252.69 372.333 252.69 372.038C251.41 375.089 249.147 376.565 245.702 376.565C242.454 376.565 239.993 375.384 238.222 373.121C236.45 370.857 235.564 367.511 235.564 363.082C235.564 358.751 236.647 355.405 238.812 353.043C240.978 350.681 243.635 349.5 246.785 349.5C249.54 349.5 251.607 350.484 252.788 352.452C252.788 347.433 252.887 343.988 252.887 342.216C252.887 341.724 252.69 341.527 252.198 341.527H251.902V341.035C255.249 340.74 257.414 339.461 258.3 337H258.694L258.694 358.653V374.4C258.792 374.991 258.989 375.384 259.284 375.68C259.481 375.876 260.071 375.975 261.056 375.975ZM252.788 370.07L252.788 353.928C251.902 351.468 250.032 350.287 247.277 350.287C245.407 350.287 244.127 351.074 243.635 352.747C243.044 354.421 242.749 357.373 242.848 361.802C242.848 362.786 242.848 363.771 242.848 364.656C242.848 365.542 242.848 366.428 242.946 367.215C242.946 368.003 243.044 368.79 243.143 369.578C243.241 370.266 243.34 370.955 243.438 371.546C243.537 372.136 243.733 372.727 243.93 373.121C244.127 373.613 244.422 374.006 244.718 374.302C245.013 374.597 245.407 374.892 245.8 374.991C246.194 375.188 246.686 375.286 247.277 375.286C248.655 375.286 249.836 374.892 250.82 374.006C251.706 373.219 252.395 371.841 252.788 370.07Z" fill="white"/>
<path d="M285.759 361.901L270.307 361.901C269.618 370.759 271.783 375.483 276.606 375.877C278.082 375.975 279.559 375.582 281.133 374.597C282.708 373.613 283.889 372.038 284.578 369.873C284.676 369.873 284.775 369.873 284.873 369.972C284.972 370.07 285.07 370.07 285.169 370.07C284.48 372.038 283.397 373.613 281.822 374.893C280.247 376.074 278.476 376.763 276.409 376.763C272.275 376.763 269.027 375.582 266.665 373.219C264.402 370.759 263.221 367.609 263.221 363.574C263.122 359.933 264.303 356.685 266.567 353.929C268.831 351.173 272.078 349.894 276.114 349.894C277.393 349.894 278.574 350.09 279.657 350.583C280.74 350.976 281.822 351.665 282.806 352.551C283.791 353.437 284.48 354.716 285.07 356.291C285.661 357.866 285.857 359.736 285.759 361.901ZM280.936 361.409C281.527 358.456 281.33 355.897 280.247 353.83C279.263 351.764 277.885 350.681 276.212 350.583C275.523 350.484 274.834 350.681 274.244 351.173C273.653 351.665 272.964 352.453 272.275 353.732C271.291 355.405 270.701 357.964 270.307 361.409L280.936 361.409Z" fill="white"/>
<path d="M301.8 351.566C302.194 351.862 302.588 352.058 302.883 352.255C303.178 352.452 303.375 352.452 303.572 352.354C303.769 352.255 303.867 352.157 304.064 352.157C304.162 352.058 304.261 351.862 304.359 351.566C304.458 351.173 304.458 350.976 304.458 350.779C304.458 350.582 304.556 350.287 304.556 349.893H304.95C304.851 351.665 304.753 354.519 304.753 358.357H304.359C304.064 356.192 303.178 354.421 301.899 352.747C300.619 351.173 298.946 350.385 296.781 350.385C295.6 350.385 294.714 350.779 294.123 351.566C293.533 352.354 293.238 353.338 293.238 354.617C293.238 355.109 293.336 355.503 293.533 355.995C293.73 356.487 293.927 356.783 294.123 357.176C294.32 357.472 294.714 357.865 295.206 358.259C295.698 358.653 296.092 358.948 296.485 359.145C296.781 359.342 297.273 359.735 298.06 360.227C298.848 360.72 299.34 361.015 299.635 361.31C301.899 362.786 303.67 364.164 304.753 365.345C305.836 366.526 306.426 368.101 306.426 369.971C306.426 372.136 305.54 373.81 303.769 375.089C301.997 376.27 299.832 376.959 297.47 376.959C295.993 376.959 294.714 376.762 293.533 376.27C293.041 376.073 292.647 375.778 292.253 375.581C291.86 375.286 291.663 375.089 291.466 374.991C291.269 374.892 291.171 374.794 290.974 374.794C290.58 374.794 290.187 374.991 289.891 375.384C289.498 375.778 289.301 376.172 289.301 376.664H288.907C289.005 374.794 289.104 371.447 289.104 366.723H289.498C289.596 369.676 290.285 372.038 291.564 373.81C292.844 375.581 294.714 376.369 297.174 376.369C298.257 376.369 299.241 375.876 300.127 374.991C301.013 374.105 301.407 372.825 301.407 371.152C301.407 370.463 301.308 369.873 301.013 369.282C300.718 368.692 300.324 368.101 299.635 367.511C298.946 366.92 298.355 366.428 297.962 366.133C297.47 365.837 296.682 365.345 295.6 364.558C294.32 363.771 293.434 363.18 292.942 362.786C292.45 362.393 291.761 361.901 290.974 361.113C290.187 360.326 289.596 359.637 289.301 358.849C289.005 358.062 288.809 357.176 288.809 356.192C288.809 354.125 289.596 352.551 291.171 351.468C292.745 350.385 294.615 349.795 296.682 349.795C298.552 349.696 300.324 350.287 301.8 351.566Z" fill="white"/>
<path d="M75.1374 383.161L72.7753 390.149H72.2832L70.1179 383.85L67.9526 390.149H67.4605L65 383.161H65.4921L67.6574 389.46L69.8227 383.161H70.3148L72.48 389.46L74.6453 383.161H75.1374Z" fill="white"/>
<path d="M85.4711 389.657V390.149H80.6484L80.6484 383.161H85.3727V383.653H81.239V386.409H84.979V386.901H81.239L81.239 389.755H85.4711V389.657Z" fill="white"/>
<path d="M99.2504 383.555H96.6914V383.161H102.203V383.653H99.6441L99.6441 390.247H99.1519L99.1519 383.555H99.2504Z" fill="white"/>
<path d="M111.555 388.181H107.519L106.633 390.149H106.043L109.291 383.161H109.783L113.031 390.149H112.44L111.555 388.181ZM111.358 387.689L109.488 383.653L107.618 387.689H111.358Z" fill="white"/>
<path d="M120.313 386.704L118.738 388.279V390.149H118.246L118.246 383.161H118.738L118.738 387.689L123.069 383.161H123.659L120.608 386.311L123.856 390.149H123.266L120.313 386.704Z" fill="white"/>
<path d="M134.19 389.657V390.149H129.367V383.161H134.091V383.653H129.958V386.409H133.698V386.901H129.958V389.755H134.19V389.657Z" fill="white"/>
<path d="M148.757 387.688V390.149H148.264V387.688L145.41 383.062H146.001L148.56 387.196L151.119 383.062H151.611L148.757 387.688Z" fill="white"/>
<path d="M157.713 389.657C157.122 389.361 156.729 388.968 156.433 388.377C156.138 387.885 155.941 387.196 155.941 386.606C155.941 385.917 156.138 385.326 156.433 384.834C156.729 384.342 157.221 383.85 157.713 383.555C158.303 383.259 158.894 383.062 159.583 383.062C160.272 383.062 160.862 383.259 161.453 383.555C162.043 383.85 162.437 384.244 162.732 384.834C163.028 385.326 163.225 386.015 163.225 386.704C163.225 387.393 163.028 387.984 162.732 388.574C162.437 389.066 161.945 389.558 161.453 389.854C160.862 390.149 160.272 390.346 159.583 390.346C158.894 390.346 158.205 390.05 157.713 389.657ZM161.158 389.263C161.65 388.968 162.043 388.673 162.24 388.18C162.536 387.688 162.634 387.196 162.634 386.606C162.634 386.015 162.536 385.523 162.24 385.031C161.945 384.539 161.551 384.145 161.158 383.948C160.666 383.653 160.173 383.555 159.583 383.555C158.992 383.555 158.5 383.653 158.008 383.948C157.516 384.244 157.122 384.539 156.926 385.031C156.63 385.523 156.532 386.015 156.532 386.606C156.532 387.196 156.63 387.688 156.926 388.18C157.221 388.673 157.615 389.066 158.008 389.263C158.5 389.558 158.992 389.657 159.583 389.657C160.173 389.657 160.666 389.558 161.158 389.263Z" fill="white"/>
<path d="M169.623 389.362C169.13 388.87 168.934 388.082 168.934 387.098V383.161H169.426V387.098C169.426 387.984 169.623 388.574 170.016 389.066C170.41 389.46 171 389.755 171.689 389.755C172.477 389.755 172.969 389.559 173.363 389.066C173.756 388.673 173.953 387.984 173.953 387.098V383.161H174.445V387.098C174.445 388.082 174.15 388.87 173.658 389.362C173.166 389.854 172.477 390.149 171.591 390.149C170.804 390.149 170.115 389.952 169.623 389.362Z" fill="white"/>
<path d="M187.93 383.555V386.507H191.67V387H187.93V390.051H187.438V383.161H192.162V383.653H187.93V383.555Z" fill="white"/>
<path d="M198.458 389.362C197.966 388.87 197.77 388.082 197.77 387.098V383.161H198.262V387.098C198.262 387.984 198.458 388.574 198.852 389.066C199.246 389.46 199.836 389.755 200.525 389.755C201.313 389.755 201.805 389.559 202.198 389.066C202.592 388.673 202.789 387.984 202.789 387.098V383.161H203.281V387.098C203.281 388.082 202.986 388.87 202.494 389.362C202.002 389.854 201.313 390.149 200.427 390.149C199.64 390.149 198.951 389.952 198.458 389.362Z" fill="white"/>
<path d="M214.6 390.149L212.927 387.787C212.632 387.787 212.435 387.885 212.238 387.885H210.269V390.149H209.777V383.161H212.336C213.222 383.161 213.911 383.358 214.403 383.752C214.895 384.145 215.191 384.736 215.191 385.523C215.191 386.114 215.092 386.507 214.797 386.901C214.502 387.295 214.108 387.59 213.616 387.689L215.387 390.149H214.6ZM212.238 387.393C213.025 387.393 213.517 387.196 213.911 386.901C214.305 386.606 214.502 386.114 214.502 385.523C214.502 384.933 214.305 384.441 213.911 384.145C213.517 383.85 212.927 383.653 212.238 383.653H210.269V387.492H212.238V387.393Z" fill="white"/>
<path d="M222.18 383.555H219.621V383.161H225.133V383.653H222.574V390.247H222.082V383.555H222.18Z" fill="white"/>
<path d="M236.156 383.161V390.149H235.664V386.803H230.939V390.149H230.447V383.161H230.939V386.409H235.664V383.161H236.156Z" fill="white"/>
<path d="M247.473 389.657V390.149H242.65V383.161H247.375V383.653H243.241V386.409H246.981V386.901H243.241V389.755H247.473V389.657Z" fill="white"/>
<path d="M258.202 390.149L256.528 387.787C256.233 387.787 256.036 387.885 255.839 387.885H253.871V390.149H253.379V383.161H255.938C256.824 383.161 257.513 383.358 258.005 383.752C258.497 384.145 258.792 384.736 258.792 385.523C258.792 386.114 258.694 386.507 258.398 386.901C258.103 387.295 257.709 387.59 257.217 387.689L258.989 390.149H258.202ZM255.839 387.393C256.627 387.393 257.119 387.196 257.513 386.901C257.906 386.606 258.103 386.114 258.103 385.523C258.103 384.933 257.906 384.441 257.513 384.145C257.119 383.85 256.528 383.653 255.839 383.653H253.871V387.492H255.839V387.393Z" fill="white"/>
<path d="M271.193 390.149V384.145L268.24 389.165H267.945L264.992 384.145V390.149H264.5V383.161H264.894L268.043 388.574L271.193 383.161H271.586V390.149H271.193Z" fill="white"/>
<path d="M279.264 389.657C278.673 389.361 278.28 388.968 277.984 388.377C277.689 387.885 277.492 387.196 277.492 386.606C277.492 385.917 277.689 385.326 277.984 384.834C278.28 384.342 278.772 383.85 279.264 383.555C279.756 383.259 280.445 383.062 281.134 383.062C281.823 383.062 282.413 383.259 283.004 383.555C283.594 383.85 283.988 384.244 284.283 384.834C284.579 385.326 284.775 386.015 284.775 386.704C284.775 387.393 284.579 387.984 284.283 388.574C283.988 389.066 283.496 389.558 283.004 389.854C282.413 390.149 281.823 390.346 281.134 390.346C280.445 390.346 279.756 390.05 279.264 389.657ZM282.709 389.263C283.201 388.968 283.594 388.673 283.791 388.18C284.086 387.688 284.185 387.196 284.185 386.606C284.185 386.015 284.086 385.523 283.791 385.031C283.496 384.539 283.102 384.145 282.709 383.948C282.216 383.653 281.724 383.555 281.134 383.555C280.543 383.555 280.051 383.653 279.559 383.948C279.067 384.244 278.673 384.539 278.476 385.031C278.181 385.523 278.083 386.015 278.083 386.606C278.083 387.196 278.181 387.688 278.476 388.18C278.772 388.673 279.165 389.066 279.559 389.263C280.051 389.558 280.543 389.657 281.134 389.657C281.724 389.657 282.216 389.558 282.709 389.263Z" fill="white"/>
<path d="M295.405 390.149L293.731 387.787C293.436 387.787 293.239 387.885 293.043 387.885H291.074V390.149H290.582V383.161H293.141C294.027 383.161 294.716 383.358 295.208 383.752C295.7 384.145 295.995 384.736 295.995 385.523C295.995 386.114 295.897 386.507 295.602 386.901C295.306 387.295 294.913 387.59 294.42 387.689L296.192 390.149H295.405ZM293.043 387.393C293.83 387.393 294.322 387.196 294.716 386.901C295.109 386.606 295.306 386.114 295.306 385.523C295.306 384.933 295.109 384.441 294.716 384.145C294.322 383.85 293.732 383.653 293.043 383.653H291.074V387.492H293.043V387.393Z" fill="white"/>
<path d="M306.526 389.657V390.149H301.703V383.161H306.427V383.653H302.294V386.409H306.034V386.901H302.294V389.755H306.526V389.657Z" fill="white"/>
<g style="mix-blend-mode:soft-light" opacity="0.5">
<path d="M255.174 50.5557H215.174L203.507 86.1112H248.507L295.174 230L191.285 306.111V350L321.841 255C331.285 248.333 335.174 236.111 331.841 225L280.73 68.889C277.396 57.7779 266.841 50.5557 255.174 50.5557Z" fill="white"/>
<path d="M149.62 214.444L202.953 50H116.286C104.62 50 94.0641 57.7778 90.7307 68.3333L40.1752 225C36.8419 236.111 40.7307 248.333 50.1752 255L180.731 350V306.111L131.842 270.556L149.62 214.444ZM75.7307 230L122.397 86.1111H154.064L101.286 248.889L75.7307 230Z" fill="white"/>
</g>
</svg>
