<svg width="30" height="25" viewBox="0 0 30 25" fill="none" xmlns="http://www.w3.org/2000/svg">
<path d="M27.7937 15.4744H26.9877C26.6857 15.4744 26.386 15.497 26.0876 15.5423L17.574 9.253L19.6136 7.32956C20.0957 6.87488 20.1126 6.12026 19.6511 5.64654C19.1883 5.17163 18.4222 5.15616 17.9425 5.60965L12.9004 10.3647C12.6491 10.6123 12.3071 10.7396 11.9482 10.7099C11.5882 10.6813 11.2716 10.5016 11.0553 10.204C10.7243 9.75171 10.8258 9.04352 11.2583 8.61622L16.9409 3.3446C18.0175 2.34836 19.7006 2.10436 21.0176 2.75543L23.816 4.13374C24.6497 4.54437 25.5849 4.761 26.5165 4.761H27.7925C28.4606 4.761 29.0007 4.22896 29.0007 3.57075C29.0007 2.91254 28.4606 2.3805 27.7925 2.3805H26.5165C25.9571 2.3805 25.3952 2.25076 24.895 2.00438L22.099 0.626071C19.8951 -0.460626 17.081 -0.0571319 15.2831 1.6116L14.5364 2.30432L13.6906 1.54494C12.5802 0.548705 11.1423 0 9.59451 0C8.66293 0 7.73376 0.216625 6.90367 0.624881L4.1077 2.00319C3.60626 2.24957 3.04441 2.37931 2.48497 2.37931H1.21144C0.543264 2.37931 0.00316141 2.91135 0.00316141 3.56956C0.00316141 4.22777 0.543264 4.75981 1.21144 4.75981H2.48739C3.41898 4.75981 4.35419 4.54199 5.18911 4.13255L7.9875 2.75424C9.22236 2.14245 10.9575 2.30789 12.0642 3.30413L12.7735 3.94092L9.57639 6.90702C8.2799 8.18297 8.07328 10.2004 9.09549 11.5942C9.7238 12.4548 10.972 13.0927 12.0485 13.0927C13.0067 13.0927 13.9262 12.7214 14.5908 12.0656L15.8063 10.9193L23.4741 16.5837C23.4366 16.6099 15.9851 22.1136 15.9851 22.1136C15.1115 22.7826 13.8924 22.7826 13.0007 22.1005L5.64101 16.6635C4.60309 15.8958 3.31507 15.4732 2.01616 15.4732H1.21024C0.542056 15.4732 0.00195312 16.0053 0.00195312 16.6635C0.00195312 17.3217 0.542056 17.8537 1.21024 17.8537H2.01616C2.7955 17.8537 3.5676 18.1073 4.19107 18.5679L11.5338 23.993C12.4098 24.6643 13.4598 25 14.5074 25C15.5489 25 16.5893 24.6679 17.452 24.0061L24.814 18.5691C25.4363 18.1085 26.2084 17.8549 26.9877 17.8549H27.7937C28.4619 17.8549 29.002 17.3229 29.002 16.6647C29.002 16.0065 28.4619 15.4744 27.7937 15.4744Z" fill="#4AAD97"/>
</svg>
