<svg width="50" height="50" viewBox="0 0 50 50" fill="none" xmlns="http://www.w3.org/2000/svg">
<path d="M39.5831 4.16667H37.4998V2.08333C37.4998 1.5308 37.2803 1.00089 36.8896 0.610194C36.4989 0.219493 35.969 0 35.4164 0C34.8639 0 34.334 0.219493 33.9433 0.610194C33.5526 1.00089 33.3331 1.5308 33.3331 2.08333V4.16667H16.6664V2.08333C16.6664 1.5308 16.4469 1.00089 16.0562 0.610194C15.6655 0.219493 15.1356 0 14.5831 0C14.0306 0 13.5007 0.219493 13.1099 0.610194C12.7192 1.00089 12.4998 1.5308 12.4998 2.08333V4.16667H10.4164C7.65477 4.16997 5.00717 5.2685 3.05438 7.22129C1.10159 9.17408 0.0030639 11.8217 -0.000244141 14.5833L-0.000244141 39.5833C0.0030639 42.345 1.10159 44.9926 3.05438 46.9454C5.00717 48.8982 7.65477 49.9967 10.4164 50H39.5831C42.3447 49.9967 44.9923 48.8982 46.9451 46.9454C48.8979 44.9926 49.9964 42.345 49.9998 39.5833V14.5833C49.9964 11.8217 48.8979 9.17408 46.9451 7.22129C44.9923 5.2685 42.3447 4.16997 39.5831 4.16667V4.16667ZM4.16642 14.5833C4.16642 12.9257 4.8249 11.336 5.99701 10.1639C7.16911 8.99181 8.75882 8.33333 10.4164 8.33333H39.5831C41.2407 8.33333 42.8304 8.99181 44.0025 10.1639C45.1746 11.336 45.8331 12.9257 45.8331 14.5833V16.6667H4.16642V14.5833ZM39.5831 45.8333H10.4164C8.75882 45.8333 7.16911 45.1749 5.99701 44.0027C4.8249 42.8306 4.16642 41.2409 4.16642 39.5833V20.8333H45.8331V39.5833C45.8331 41.2409 45.1746 42.8306 44.0025 44.0027C42.8304 45.1749 41.2407 45.8333 39.5831 45.8333Z" fill="#4AAD97"/>
<path d="M24.9998 34.375C26.7256 34.375 28.1248 32.9759 28.1248 31.25C28.1248 29.5241 26.7256 28.125 24.9998 28.125C23.2739 28.125 21.8748 29.5241 21.8748 31.25C21.8748 32.9759 23.2739 34.375 24.9998 34.375Z" fill="#4AAD97"/>
<path d="M14.5837 34.375C16.3096 34.375 17.7087 32.9759 17.7087 31.25C17.7087 29.5241 16.3096 28.125 14.5837 28.125C12.8579 28.125 11.4587 29.5241 11.4587 31.25C11.4587 32.9759 12.8579 34.375 14.5837 34.375Z" fill="#4AAD97"/>
<path d="M35.4158 34.375C37.1417 34.375 38.5408 32.9759 38.5408 31.25C38.5408 29.5241 37.1417 28.125 35.4158 28.125C33.6899 28.125 32.2908 29.5241 32.2908 31.25C32.2908 32.9759 33.6899 34.375 35.4158 34.375Z" fill="#4AAD97"/>
</svg>
