<svg width="16" height="16" viewBox="0 0 16 16" fill="none" xmlns="http://www.w3.org/2000/svg">
<path d="M13.0059 1.06641H2.99213C1.92903 1.06772 1.06772 1.92903 1.06641 2.99213V13.0059C1.06772 14.069 1.92903 14.9303 2.99213 14.9316H13.0059C14.069 14.9303 14.9303 14.069 14.9316 13.0059V2.99213C14.9303 1.92903 14.069 1.06772 13.0059 1.06641ZM14.1613 13.0059C14.1613 13.644 13.644 14.1613 13.0059 14.1613H2.99213C2.35405 14.1613 1.8367 13.644 1.8367 13.0059V2.99213C1.8367 2.35405 2.35405 1.8367 2.99213 1.8367H13.0059C13.644 1.8367 14.1613 2.35405 14.1613 2.99213V13.0059Z" fill="white" stroke="white" stroke-width="0.5"/>
<path d="M8.00001 11.3311H8.00029C9.83895 11.329 11.3291 9.83883 11.3312 8.00017V7.99989C11.3312 6.16007 9.83983 4.66873 8.00001 4.66873C6.16019 4.66873 4.66885 6.16007 4.66885 7.99989C4.66885 9.83971 6.16019 11.3311 8.00001 11.3311ZM4.39856 7.99989C4.39856 6.01087 6.01087 4.39851 7.99988 4.39844C9.98815 4.40062 11.5994 6.01186 11.6015 8.00016C11.6013 9.9891 9.98899 11.6013 8.00001 11.6013C6.01095 11.6013 4.39856 9.98896 4.39856 7.99989Z" fill="white" stroke="white" stroke-width="0.5"/>
<path d="M12.2375 2.60938C11.5994 2.60938 11.082 3.12673 11.082 3.76481C11.082 4.4029 11.5994 4.92025 12.2375 4.92025C12.8756 4.92025 13.3929 4.4029 13.3929 3.76481C13.3929 3.12673 12.8756 2.60938 12.2375 2.60938ZM12.2375 4.14996C12.0248 4.14996 11.8523 3.97751 11.8523 3.76481C11.8523 3.55212 12.0248 3.37967 12.2375 3.37967C12.4502 3.37967 12.6226 3.55212 12.6226 3.76481C12.6226 3.97751 12.4502 4.14996 12.2375 4.14996Z" fill="white"/>
</svg>
