<svg width="13" height="12" viewBox="0 0 13 12" fill="none" xmlns="http://www.w3.org/2000/svg">
<path d="M1.90857 3.27418C2.6617 3.27418 3.27223 2.66365 3.27223 1.91053C3.27223 1.1574 2.6617 0.546875 1.90857 0.546875C1.15545 0.546875 0.544922 1.1574 0.544922 1.91053C0.544922 2.66365 1.15545 3.27418 1.90857 3.27418Z" fill="white"/>
<path d="M3.27217 3.95312H0.544922V11.4531H3.27217V3.95312Z" fill="white"/>
<path d="M9.65486 3.95312C7.60941 3.95312 7.36397 5.16678 7.36397 5.16678V3.95312H4.63672V11.4531H7.36397V7.36223C7.36397 7.36223 7.36396 5.99857 8.52307 5.99857C9.20486 5.99857 9.40941 6.60537 9.40941 7.36223V11.4531H12.1367V7.36223C12.1367 5.22813 11.2094 3.95312 9.65486 3.95312Z" fill="white"/>
</svg>
