<svg width="36" height="35" viewBox="0 0 36 35" fill="none" xmlns="http://www.w3.org/2000/svg">
<path d="M19.8994 1.46066C19.8994 1.07389 20.053 0.702955 20.3265 0.429465C20.6 0.155974 20.971 0.00232891 21.3577 0.00232891C25.2242 0.00657499 28.931 1.54439 31.665 4.27838C34.399 7.01236 35.9368 10.7192 35.9411 14.5857C35.9411 14.9724 35.7874 15.3434 35.5139 15.6169C35.2404 15.8904 34.8695 16.044 34.4827 16.044C34.096 16.044 33.725 15.8904 33.4515 15.6169C33.178 15.3434 33.0244 14.9724 33.0244 14.5857C33.0209 11.4925 31.7906 8.52709 29.6035 6.33992C27.4163 4.15275 24.4509 2.92247 21.3577 2.919C20.971 2.919 20.6 2.76535 20.3265 2.49186C20.053 2.21837 19.8994 1.84744 19.8994 1.46066ZM21.3577 8.75233C22.9048 8.75233 24.3886 9.36691 25.4825 10.4609C26.5765 11.5548 27.1911 13.0386 27.1911 14.5857C27.1911 14.9724 27.3447 15.3434 27.6182 15.6169C27.8917 15.8904 28.2626 16.044 28.6494 16.044C29.0362 16.044 29.4071 15.8904 29.6806 15.6169C29.9541 15.3434 30.1077 14.9724 30.1077 14.5857C30.1054 12.2657 29.1828 10.0415 27.5424 8.40104C25.9019 6.7606 23.6777 5.83798 21.3577 5.83566C20.971 5.83566 20.6 5.98931 20.3265 6.2628C20.053 6.53629 19.8994 6.90722 19.8994 7.294C19.8994 7.68077 20.053 8.0517 20.3265 8.32519C20.6 8.59868 20.971 8.75233 21.3577 8.75233ZM34.6184 24.4134C35.4635 25.2608 35.9381 26.4088 35.9381 27.6057C35.9381 28.8025 35.4635 29.9505 34.6184 30.798L33.2913 32.3277C21.3475 43.7625 -7.71706 14.7052 3.54127 2.72358L5.21835 1.26525C6.06676 0.443733 7.2045 -0.0107245 8.38542 0.000192222C9.56634 0.011109 10.6955 0.486522 11.5286 1.32358C11.5738 1.36879 14.2761 4.879 14.2761 4.879C15.0779 5.72137 15.5243 6.84035 15.5224 8.00333C15.5205 9.16632 15.0704 10.2838 14.2659 11.1236L12.5771 13.2469C13.5117 15.5177 14.8857 17.5814 16.6203 19.3196C18.355 21.0577 20.4159 22.4359 22.6848 23.375L24.8213 21.6761C25.6611 20.8721 26.7784 20.4226 27.9411 20.421C29.1037 20.4194 30.2223 20.8657 31.0644 21.6673C31.0644 21.6673 34.5731 24.3682 34.6184 24.4134ZM32.6117 26.5338C32.6117 26.5338 29.1219 23.849 29.0767 23.8038C28.7762 23.5059 28.3703 23.3388 27.9472 23.3388C27.5241 23.3388 27.1182 23.5059 26.8177 23.8038C26.7784 23.8446 23.8369 26.1882 23.8369 26.1882C23.6387 26.3459 23.4028 26.4494 23.1524 26.4882C22.9021 26.5271 22.6459 26.5001 22.4092 26.4098C19.4699 25.3155 16.8001 23.6022 14.5806 21.386C12.3612 19.1698 10.6439 16.5025 9.54523 13.5648C9.44781 13.3249 9.41605 13.0633 9.45321 12.807C9.49037 12.5507 9.59512 12.3089 9.75669 12.1065C9.75669 12.1065 12.1002 9.16358 12.1396 9.12566C12.4375 8.82522 12.6046 8.41927 12.6046 7.99618C12.6046 7.5731 12.4375 7.16714 12.1396 6.8667C12.0944 6.82295 9.4096 3.33025 9.4096 3.33025C9.10466 3.05682 8.70669 2.91038 8.29725 2.92096C7.88782 2.93153 7.49793 3.09832 7.20752 3.38712L5.53044 4.84545C-2.69748 14.7388 22.4894 38.5286 31.1592 30.3357L32.4877 28.8044C32.7991 28.516 32.986 28.1179 33.0092 27.6942C33.0323 27.2705 32.8898 26.8543 32.6117 26.5338Z" fill="white"/>
</svg>
