<svg width="12" height="15" viewBox="0 0 12 15" fill="none" xmlns="http://www.w3.org/2000/svg">
<path d="M5.82133 0.864448L4.94857 0.97355C4.40014 1.07667 3.86805 1.25328 3.36678 1.49855C2.22273 2.10043 1.32367 3.08146 0.823573 4.27355C0.75619 4.49709 0.703808 4.72484 0.666776 4.95535C0.284628 6.31291 0.777929 7.76568 1.90768 8.6099C2.07812 8.71214 2.47357 8.9031 2.58947 8.6508C2.64285 8.49611 2.67947 8.33609 2.69857 8.17349C2.76431 8.03697 2.80141 7.88849 2.80768 7.73714C2.76678 7.51214 2.52812 7.3758 2.42588 7.19169C2.25777 6.82062 2.15178 6.42441 2.11223 6.01894V5.82119C2.16285 4.14728 3.33678 2.71841 4.96902 2.34394C5.47961 2.20595 6.01187 2.16658 6.53722 2.22804L7.29402 2.35759C8.15898 2.58341 8.87418 3.19068 9.23723 4.00759C9.47517 4.70761 9.52228 5.45837 9.37357 6.18259C9.29857 6.49625 9.31223 6.76894 9.21678 7.05535C8.86902 8.11214 8.35767 9.1008 7.20543 9.3599C6.57871 9.52367 5.92785 9.19677 5.68498 8.59625C5.59855 8.41373 5.56773 8.20982 5.59633 8.0099C5.79408 7.1508 6.08722 6.38714 6.27812 5.5281C6.51332 4.89242 6.18871 4.18642 5.55303 3.95117C5.52021 3.93904 5.48687 3.92826 5.45312 3.919C4.66223 3.7281 4.05537 4.46445 3.84402 4.94175C3.64644 5.44712 3.5991 5.99878 3.70767 6.53041C3.82275 6.76109 3.90537 7.0066 3.95312 7.25996C3.80312 7.94175 3.62588 8.62361 3.44178 9.30541C3.25767 9.9872 3.14178 10.6691 2.95088 11.3509C2.86223 11.6509 2.86908 11.9713 2.79408 12.285V12.7418C2.74685 13.1032 2.76303 13.47 2.84184 13.8259C2.88273 14.01 2.84184 14.235 2.91004 14.3713C2.90705 14.4318 2.92381 14.4916 2.95779 14.5418C3.23734 14.5418 3.63959 13.7985 3.76234 13.5872C4.02795 13.1647 4.25611 12.7199 4.44414 12.2577C4.62824 11.8281 4.65549 11.3509 4.79869 10.894C4.94301 10.5177 5.0459 10.1267 5.10549 9.7281C5.19396 9.92164 5.34209 10.0818 5.52824 10.1849C6.18279 10.6478 7.00199 10.8136 7.78504 10.6417C8.73713 10.4568 9.59254 9.93968 10.1987 9.18259C10.6107 8.62197 10.9285 7.99783 11.1396 7.33484C11.2555 6.99394 11.2759 6.61209 11.3646 6.25074C11.5115 5.36632 11.3953 4.4583 11.0305 3.63939C10.2463 1.8599 8.54178 0.82355 5.82133 0.864448Z" fill="white"/>
</svg>
