<svg width="26" height="25" viewBox="0 0 26 25" fill="none" xmlns="http://www.w3.org/2000/svg">
<path d="M19.7936 0H5.21029C3.82946 0.00165402 2.50566 0.550919 1.52927 1.52731C0.552872 2.50371 0.00360714 3.82751 0.00195313 5.20833L0.00195312 19.7917C0.00360714 21.1725 0.552872 22.4963 1.52927 23.4727C2.50566 24.4491 3.82946 24.9983 5.21029 25H19.7936C21.1744 24.9983 22.4982 24.4491 23.4746 23.4727C24.451 22.4963 25.0003 21.1725 25.002 19.7917V5.20833C25.0003 3.82751 24.451 2.50371 23.4746 1.52731C22.4982 0.550919 21.1744 0.00165402 19.7936 0V0ZM5.21029 2.08333H19.7936C20.6224 2.08333 21.4173 2.41257 22.0033 2.99862C22.5894 3.58468 22.9186 4.37953 22.9186 5.20833V19.7917C22.9168 20.2557 22.81 20.7133 22.6061 21.1302L13.0613 11.5854C12.5777 11.1016 12.0034 10.7179 11.3715 10.456C10.7395 10.1942 10.0621 10.0594 9.37799 10.0594C8.69391 10.0594 8.01653 10.1942 7.38453 10.456C6.75254 10.7179 6.17832 11.1016 5.69466 11.5854L2.08529 15.1937V5.20833C2.08529 4.37953 2.41453 3.58468 3.00058 2.99862C3.58663 2.41257 4.38148 2.08333 5.21029 2.08333V2.08333ZM5.21029 22.9167C4.38148 22.9167 3.58663 22.5874 3.00058 22.0014C2.41453 21.4153 2.08529 20.6205 2.08529 19.7917V18.1396L7.16654 13.0583C7.45675 12.7679 7.80133 12.5376 8.1806 12.3804C8.55988 12.2232 8.9664 12.1423 9.37695 12.1423C9.7875 12.1423 10.194 12.2232 10.5733 12.3804C10.9526 12.5376 11.2972 12.7679 11.5874 13.0583L21.1322 22.6042C20.7153 22.808 20.2577 22.9149 19.7936 22.9167H5.21029Z" fill="#4AAD97"/>
<path d="M16.6693 10.9372C17.3903 10.9372 18.0952 10.7234 18.6948 10.3227C19.2943 9.92213 19.7616 9.35273 20.0376 8.68654C20.3135 8.02035 20.3857 7.2873 20.2451 6.58008C20.1044 5.87285 19.7571 5.22323 19.2473 4.71335C18.7374 4.20347 18.0878 3.85624 17.3805 3.71556C16.6733 3.57489 15.9403 3.64709 15.2741 3.92303C14.6079 4.19898 14.0385 4.66627 13.6379 5.26583C13.2373 5.86538 13.0234 6.57027 13.0234 7.29134C13.0234 8.25828 13.4076 9.18561 14.0913 9.86934C14.775 10.5531 15.7023 10.9372 16.6693 10.9372ZM16.6693 5.72884C16.9783 5.72884 17.2804 5.82048 17.5373 5.99217C17.7943 6.16386 17.9946 6.40789 18.1128 6.6934C18.2311 6.97891 18.262 7.29308 18.2017 7.59617C18.1415 7.89927 17.9926 8.17768 17.7741 8.3962C17.5556 8.61472 17.2772 8.76353 16.9741 8.82382C16.671 8.88411 16.3568 8.85317 16.0713 8.7349C15.7858 8.61664 15.5418 8.41637 15.3701 8.15942C15.1984 7.90247 15.1068 7.60038 15.1068 7.29134C15.1068 6.87694 15.2714 6.47951 15.5644 6.18649C15.8574 5.89346 16.2549 5.72884 16.6693 5.72884Z" fill="#4AAD97"/>
</svg>
