<svg width="31" height="30" viewBox="0 0 31 30" fill="none" xmlns="http://www.w3.org/2000/svg">
<path d="M11.2103 30H5.00288C3.67655 30 2.40455 29.4732 1.46669 28.5355C0.528835 27.5979 0.00195313 26.3261 0.00195312 25V18.75C0.00195313 17.4239 0.528835 16.1521 1.46669 15.2145C2.40455 14.2768 3.67655 13.75 5.00288 13.75H16.0762C16.7528 13.7503 17.4179 13.9253 18.0071 14.2579C18.5963 14.5905 19.0896 15.0696 19.4393 15.6488L23.4613 11.23C23.794 10.8642 24.1955 10.5676 24.6429 10.3571C25.0903 10.1465 25.5748 10.0262 26.0687 10.003C26.5627 9.97979 27.0563 10.0541 27.5215 10.2218C27.9867 10.3894 28.4143 10.6471 28.7798 10.98C29.5092 11.6499 29.9462 12.5794 29.997 13.5683C30.0477 14.5572 29.7081 15.5265 29.0511 16.2675L20.5495 25.8137C19.3757 27.13 17.9369 28.1834 16.3274 28.9048C14.7179 29.6263 12.9741 29.9995 11.2103 30ZM5.00288 16.25C4.33972 16.25 3.70372 16.5134 3.23479 16.9822C2.76586 17.4511 2.50242 18.087 2.50242 18.75V25C2.50242 25.663 2.76586 26.2989 3.23479 26.7678C3.70372 27.2366 4.33972 27.5 5.00288 27.5H11.2103C12.6205 27.4994 14.0146 27.2009 15.3013 26.624C16.588 26.0471 17.7383 25.2049 18.6767 24.1525L27.1845 14.605C27.4054 14.3562 27.5197 14.0307 27.5029 13.6985C27.4861 13.3662 27.3394 13.0539 27.0945 12.8287C26.8455 12.6049 26.5189 12.487 26.1843 12.5C26.0184 12.507 25.8556 12.547 25.7054 12.6176C25.5551 12.6882 25.4204 12.788 25.3092 12.9113L19.7756 19C19.5327 19.6722 19.1118 20.2659 18.5578 20.7176C18.0038 21.1694 17.3375 21.4622 16.63 21.565L10.1776 22.4875C9.84933 22.5346 9.51581 22.4493 9.25039 22.2506C8.98498 22.0518 8.80942 21.7557 8.76233 21.4275C8.71525 21.0993 8.8005 20.7658 8.99932 20.5005C9.19815 20.2351 9.49426 20.0596 9.82253 20.0125L16.2762 19.0912C16.6345 19.0412 16.9603 18.857 17.188 18.576C17.4157 18.295 17.5282 17.938 17.5028 17.5773C17.4774 17.2165 17.316 16.8788 17.0512 16.6325C16.7864 16.3861 16.4379 16.2494 16.0762 16.25H5.00288ZM13.7545 11.3425C13.1879 11.344 12.6377 11.1517 12.1955 10.7975C10.0551 9.08 7.50335 6.5 7.50335 4C7.47265 2.97296 7.85002 1.97556 8.5529 1.22596C9.25578 0.476354 10.227 0.0355653 11.254 0C12.1884 0.00363853 13.0849 0.369772 13.7545 1.02125C14.4242 0.369772 15.3206 0.00363853 16.255 0C17.2821 0.0355653 18.2532 0.476354 18.9561 1.22596C19.659 1.97556 20.0364 2.97296 20.0057 4C20.0057 6.5 17.454 9.08 15.3123 10.7987C14.8702 11.1522 14.3206 11.3441 13.7545 11.3425ZM11.254 2.5C10.8907 2.53645 10.5561 2.71402 10.3223 2.99453C10.0885 3.27504 9.97415 3.63607 10.0038 4C10.0038 5.125 11.4428 6.9875 13.762 8.84875C16.0662 6.9875 17.5052 5.125 17.5052 4C17.5349 3.63607 17.4205 3.27504 17.1867 2.99453C16.9529 2.71402 16.6184 2.53645 16.255 2.5C15.8916 2.53645 15.557 2.71402 15.3232 2.99453C15.0894 3.27504 14.9751 3.63607 15.0047 4C15.0047 4.33152 14.873 4.64946 14.6386 4.88388C14.4041 5.1183 14.0861 5.25 13.7545 5.25C13.4229 5.25 13.1049 5.1183 12.8705 4.88388C12.636 4.64946 12.5043 4.33152 12.5043 4C12.5339 3.63607 12.4196 3.27504 12.1858 2.99453C11.952 2.71402 11.6174 2.53645 11.254 2.5Z" fill="#4AAD97"/>
</svg>
