<svg width="37" height="35" viewBox="0 0 37 35" fill="none" xmlns="http://www.w3.org/2000/svg">
<path d="M29.2292 21.3886C28.1267 21.3895 27.0409 21.6587 26.0656 22.1729C25.0902 22.6871 24.2547 23.4309 23.631 24.3401L14.1392 20.0543C14.8134 18.4264 14.816 16.5978 14.1465 14.9679L23.6252 10.6602C24.5495 11.9971 25.9224 12.9584 27.4948 13.3697C29.0672 13.7811 30.7349 13.6152 32.1955 12.9023C33.6561 12.1893 34.8128 10.9765 35.4558 9.4838C36.0988 7.99108 36.1854 6.31734 35.7001 4.7662C35.2147 3.21505 34.1895 1.88924 32.8103 1.02924C31.4312 0.169248 29.7895 -0.167962 28.183 0.0787803C26.5765 0.325523 25.1117 1.13987 24.0542 2.37412C22.9967 3.60836 22.4167 5.18074 22.4192 6.80605C22.4254 7.19074 22.4644 7.57419 22.5358 7.95224L12.4593 12.5312C11.4915 11.6244 10.2799 11.0202 8.97343 10.7926C7.66693 10.565 6.3224 10.724 5.10501 11.25C3.88763 11.7761 2.85043 12.6463 2.12082 13.7537C1.39121 14.8612 1.00098 16.1576 0.998063 17.4838C0.995149 18.8099 1.37968 20.1081 2.10442 21.2187C2.82915 22.3294 3.86252 23.2041 5.07758 23.7355C6.29264 24.2669 7.63646 24.4318 8.94395 24.2099C10.2514 23.9881 11.4656 23.3891 12.4374 22.4867L22.5402 27.0481C22.47 27.4258 22.4315 27.8087 22.425 28.1929C22.4247 29.539 22.8237 30.855 23.5714 31.9744C24.3191 33.0938 25.382 33.9664 26.6256 34.4817C27.8692 34.997 29.2378 35.1319 30.5581 34.8693C31.8784 34.6067 33.0912 33.9585 34.0431 33.0067C34.9949 32.0548 35.6431 30.842 35.9057 29.5217C36.1682 28.2014 36.0333 26.8328 35.5181 25.5892C35.0028 24.3456 34.1302 23.2827 33.0108 22.535C31.8914 21.7873 30.5754 21.3883 29.2292 21.3886ZM29.2292 2.91688C29.9985 2.91659 30.7506 3.14444 31.3904 3.57161C32.0301 3.99878 32.5288 4.60609 32.8234 5.31672C33.118 6.02734 33.1952 6.80937 33.0453 7.56389C32.8954 8.31842 32.5251 9.01154 31.9813 9.55559C31.4374 10.0996 30.7444 10.4702 29.99 10.6204C29.2355 10.7706 28.4535 10.6936 27.7427 10.3993C27.032 10.105 26.4245 9.60651 25.9971 8.96691C25.5697 8.32731 25.3415 7.57532 25.3415 6.80605C25.3423 5.77506 25.7521 4.78651 26.481 4.05736C27.2099 3.3282 28.1983 2.91803 29.2292 2.91688ZM7.84244 21.3886C7.07317 21.3889 6.3211 21.1611 5.68134 20.7339C5.04157 20.3067 4.54286 19.6994 4.24828 18.9888C3.95369 18.2782 3.87646 17.4961 4.02636 16.7416C4.17626 15.9871 4.54656 15.294 5.09041 14.7499C5.63426 14.2058 6.32724 13.8353 7.08171 13.6851C7.83617 13.5349 8.61823 13.6119 9.32897 13.9062C10.0397 14.2005 10.6472 14.699 11.0746 15.3386C11.502 15.9782 11.7302 16.7302 11.7302 17.4994C11.729 18.5303 11.3191 19.5186 10.5903 20.2477C9.86149 20.9768 8.87331 21.3871 7.84244 21.3886ZM29.2292 32.082C28.46 32.082 27.7081 31.8539 27.0685 31.4266C26.429 30.9992 25.9305 30.3918 25.6361 29.6812C25.3418 28.9705 25.2647 28.1885 25.4148 27.4341C25.5649 26.6797 25.9353 25.9867 26.4792 25.4428C27.0231 24.8989 27.7161 24.5285 28.4705 24.3784C29.2249 24.2283 30.0069 24.3054 30.7176 24.5997C31.4282 24.8941 32.0356 25.3926 32.463 26.0321C32.8903 26.6717 33.1184 27.4236 33.1184 28.1929C33.1176 29.2241 32.7076 30.2129 31.9785 30.9421C31.2493 31.6713 30.2605 32.0813 29.2292 32.082Z" fill="white"/>
</svg>
