<svg width="50" height="50" viewBox="0 0 50 50" fill="none" xmlns="http://www.w3.org/2000/svg">
<path d="M24.9998 0C20.0552 0 15.2217 1.46622 11.1105 4.21326C6.99928 6.96029 3.79497 10.8648 1.90278 15.4329C0.010588 20.0011 -0.484495 25.0277 0.480135 29.8773C1.44477 34.7268 3.82578 39.1814 7.3221 42.6777C10.8184 46.174 15.273 48.555 20.1225 49.5196C24.972 50.4843 29.9987 49.9892 34.5668 48.097C39.135 46.2048 43.0395 43.0005 45.7865 38.8893C48.5335 34.778 49.9998 29.9445 49.9998 25C49.9926 18.3718 47.3564 12.0171 42.6695 7.33025C37.9827 2.64339 31.628 0.00716892 24.9998 0V0ZM43.0143 14.5833H36.3039C34.8018 11.102 32.8239 7.84601 30.4268 4.90833C35.732 6.35193 40.2546 9.82806 43.0143 14.5833ZM34.3748 25C34.3577 27.1211 34.0234 29.2278 33.3831 31.25H16.6164C15.9761 29.2278 15.6419 27.1211 15.6248 25C15.6419 22.8789 15.9761 20.7722 16.6164 18.75H33.3831C34.0234 20.7722 34.3577 22.8789 34.3748 25ZM18.2873 35.4167H31.7123C29.944 38.9078 27.6834 42.1267 24.9998 44.975C22.3151 42.1275 20.0544 38.9084 18.2873 35.4167ZM18.2873 14.5833C20.0555 11.0922 22.3161 7.87325 24.9998 5.025C27.6844 7.87244 29.9451 11.0916 31.7123 14.5833H18.2873ZM19.5831 4.90833C17.1824 7.84538 15.201 11.1015 13.6956 14.5833H6.98518C9.74738 9.8259 14.274 6.34949 19.5831 4.90833ZM5.12685 18.75H12.2914C11.7513 20.7899 11.4713 22.8899 11.4581 25C11.4713 27.1101 11.7513 29.2101 12.2914 31.25H5.12685C3.84631 27.1817 3.84631 22.8183 5.12685 18.75ZM6.98518 35.4167H13.6956C15.201 38.8985 17.1824 42.1546 19.5831 45.0917C14.274 43.6505 9.74738 40.1741 6.98518 35.4167ZM30.4268 45.0917C32.8239 42.154 34.8018 38.8979 36.3039 35.4167H43.0143C40.2546 40.1719 35.732 43.6481 30.4268 45.0917ZM44.8727 31.25H37.7081C38.2482 29.2101 38.5282 27.1101 38.5414 25C38.5282 22.8899 38.2482 20.7899 37.7081 18.75H44.8685C46.149 22.8183 46.149 27.1817 44.8685 31.25H44.8727Z" fill="#4AAD97"/>
</svg>
