<svg width="36" height="35" viewBox="0 0 36 35" fill="none" xmlns="http://www.w3.org/2000/svg">
<path fill-rule="evenodd" clip-rule="evenodd" d="M30.7568 5.08667C27.4814 1.80833 23.1268 0.00145833 18.4878 0C8.92846 0 1.14826 7.77875 1.14388 17.3425C1.14242 20.3992 1.94159 23.3829 3.45971 26.0138L0.998047 35L10.1914 32.5879C12.7245 33.9704 15.577 34.6981 18.4791 34.6996H18.4864C28.0443 34.6996 35.826 26.9194 35.8303 17.3556C35.8333 12.7225 34.0308 8.36354 30.7568 5.08667ZM18.4878 31.7698H18.482C15.8949 31.7698 13.3589 31.0742 11.1451 29.7602L10.6187 29.4481L5.16305 30.8787L6.61992 25.5588L6.27721 25.0133C4.83346 22.7179 4.07221 20.0652 4.07367 17.3425C4.07659 9.39458 10.5443 2.92833 18.4951 2.92833C22.3451 2.92833 25.9647 4.43042 28.686 7.15458C31.4072 9.88021 32.9049 13.5013 32.9035 17.3527C32.8991 25.3035 26.4328 31.7698 18.4878 31.7698ZM26.3949 20.9738C25.9618 20.7565 23.8312 19.7079 23.433 19.5635C23.0364 19.4192 22.7476 19.3463 22.4574 19.7794C22.1672 20.2125 21.3389 21.1896 21.0851 21.4798C20.8328 21.7685 20.5791 21.805 20.146 21.5877C19.7128 21.3704 18.3158 20.914 16.6605 19.4367C15.3728 18.2875 14.5022 16.8685 14.2499 16.434C13.9976 15.9994 14.2237 15.766 14.4395 15.5502C14.6349 15.3563 14.8726 15.0442 15.0899 14.7904C15.3087 14.5396 15.3801 14.3588 15.526 14.0685C15.6703 13.7798 15.5989 13.526 15.4895 13.3088C15.3801 13.0929 14.5139 10.9594 14.1537 10.0917C13.8022 9.24583 13.4449 9.36104 13.178 9.34792C12.9258 9.33479 12.637 9.33333 12.3468 9.33333C12.058 9.33333 11.5885 9.44125 11.1918 9.87583C10.7951 10.3104 9.67513 11.359 9.67513 13.491C9.67513 15.6246 11.2283 17.6852 11.4441 17.974C11.6599 18.2627 14.4993 22.6406 18.8466 24.5175C19.8805 24.9638 20.6885 25.2306 21.317 25.4304C22.3553 25.76 23.3003 25.7133 24.047 25.6025C24.8797 25.4785 26.6108 24.554 26.9724 23.5419C27.3341 22.5298 27.3341 21.6606 27.2247 21.4813C27.1168 21.299 26.828 21.191 26.3949 20.9738Z" fill="white"/>
</svg>
