<svg width="16" height="17" viewBox="0 0 16 17" fill="none" xmlns="http://www.w3.org/2000/svg">
<path d="M7.39945 6.22484H7.679C8.2977 6.22484 8.80025 5.72533 8.804 5.10664V3.28619C8.79293 2.67553 8.29658 2.18527 7.6858 2.18164H7.40625C6.78756 2.18164 6.285 2.68115 6.28125 3.29984V5.12029C6.29238 5.73096 6.78867 6.22127 7.39945 6.22484ZM7.1199 3.21805C7.12008 2.98461 7.30945 2.79541 7.54289 2.79559C7.77615 2.79576 7.96523 2.98479 7.96535 3.21805V5.17484C7.96518 5.40828 7.7758 5.59748 7.54236 5.5973C7.3091 5.59713 7.12008 5.40811 7.1199 5.17484V3.21805Z" fill="white"/>
<path d="M4.07893 6.15719H5.06758V3.98219L6.19258 0.900391H5.27213L4.59027 2.94584L3.90848 0.900391H2.89258L4.09258 3.98219L4.07893 6.15719Z" fill="white"/>
<path d="M10.2159 6.22484C10.6139 6.18658 10.9867 6.01332 11.2727 5.73394V6.1567H12.0909V2.1817H11.2727V5.2635C11.2727 5.2635 10.9931 5.59074 10.7272 5.59074C10.4613 5.59074 10.4477 5.37939 10.4477 5.37939V2.18164H9.58179V5.67939C9.62907 5.9931 9.89866 6.22502 10.2159 6.22484Z" fill="white"/>
<path d="M9.65713 10.793C9.49283 10.801 9.33943 10.8777 9.23438 11.0043V13.8271C9.34225 13.9464 9.49629 14.0135 9.65713 14.0112C10.0799 14.0112 10.0799 13.5407 10.0799 13.5407V11.2635C10.0799 11.2634 10.0049 10.793 9.65713 10.793Z" fill="white"/>
<path d="M12.8953 10.793C12.4725 10.793 12.4725 11.2634 12.4725 11.2634V11.8702H13.318V11.2634C13.318 11.2634 13.318 10.793 12.8953 10.793Z" fill="white"/>
<path d="M13.2104 7.09545C13.1986 7.09563 13.1868 7.09592 13.1749 7.09633H13.1613C13.1613 7.09633 10.5908 6.95312 7.99994 6.95312C5.40904 6.95312 2.82494 7.08947 2.82494 7.08947C1.6959 7.0518 0.750078 7.93656 0.71246 9.06561C0.711699 9.08869 0.711289 9.11184 0.711347 9.13492C0.581152 9.99262 0.510488 10.8583 0.5 11.7258C0.509609 12.6024 0.580215 13.4772 0.711347 14.344C0.710703 15.4737 1.626 16.39 2.75568 16.3906C2.77877 16.3906 2.80191 16.3902 2.825 16.3895C2.825 16.3895 5.3682 16.5258 8 16.5258C10.6318 16.5258 13.175 16.3895 13.175 16.3895C14.304 16.4271 15.2499 15.5424 15.2875 14.4133C15.2882 14.3903 15.2887 14.3671 15.2886 14.344C15.4191 13.4772 15.4897 12.6024 15.4999 11.7258C15.4913 10.8492 15.4207 9.97428 15.2886 9.10762C15.2704 7.97816 14.34 7.07723 13.2104 7.09545ZM4.93859 9.38037H3.90904V14.6849H2.89314V9.38037H1.86359V8.50762H4.95904L4.93859 9.38037ZM7.61814 14.6849H6.7659V14.2827C6.47586 14.5528 6.10391 14.7184 5.7091 14.7531C5.39193 14.7597 5.11976 14.5285 5.075 14.2145V10.0486H5.95455V13.9418C5.95455 13.9418 5.95455 14.1463 6.2341 14.1463C6.51365 14.1463 6.8 13.8122 6.8 13.8122V10.0486H7.64545L7.61814 14.6849ZM10.1477 14.7531C9.78904 14.7563 9.45008 14.5894 9.23404 14.3031V14.6849H8.31359V8.50768H9.22725V10.5122C9.46109 10.2473 9.78863 10.0836 10.1409 10.0554C10.7068 10.0554 10.9181 10.5259 10.9181 11.1327L10.9249 13.6759C10.9249 13.6759 10.9249 14.7531 10.1477 14.7531ZM14.2317 12.5577H12.4726V13.5668C12.4726 13.5668 12.4726 14.0372 12.8954 14.0372C13.3181 14.0372 13.3181 13.5668 13.3181 13.5668V13.0895H14.2318V13.8258C14.1095 14.4161 13.564 14.8209 12.9636 14.7667C12.3417 14.8227 11.7683 14.4271 11.5999 13.8258V11.194C11.6189 10.5391 12.1652 10.0235 12.8202 10.0425C12.8682 10.0439 12.9161 10.0482 12.9636 10.0554C13.5712 9.96842 14.1342 10.3905 14.2212 10.998C14.2306 11.0629 14.2341 11.1285 14.2318 11.194V12.5577H14.2317Z" fill="white"/>
</svg>
